<svg width="50" height="50" viewBox="0 0 50 50" fill="none" xmlns="http://www.w3.org/2000/svg">
<path d="M37.2437 14.7924C37.0929 14.74 36.9334 14.7059 36.7647 14.7059H13.2353C13.0665 14.7059 12.9075 14.74 12.7563 14.7924L25 24.5871L37.2437 14.7924Z" fill="#2C3345"/>
<path d="M11.7647 33.8235C11.7647 34.636 12.4228 35.2941 13.2353 35.2941H36.7647C37.5772 35.2941 38.2353 34.636 38.2353 33.8235V17.7659L25.9188 27.6188C25.6502 27.8338 25.3249 27.9412 25 27.9412C24.6751 27.9412 24.3498 27.8338 24.0812 27.6188L11.7647 17.7659V33.8235Z" fill="#2C3345"/>
<path fill-rule="evenodd" clip-rule="evenodd" d="M25 50C38.8072 50 50 38.8072 50 25C50 11.1928 38.8072 0 25 0C11.1928 0 0 11.1928 0 25C0 38.8072 11.1928 50 25 50ZM8.82353 16.1765C8.82353 13.7401 10.7989 11.7647 13.2353 11.7647H36.7647C39.2011 11.7647 41.1765 13.7401 41.1765 16.1765V33.8235C41.1765 36.2599 39.2011 38.2353 36.7647 38.2353H13.2353C10.7989 38.2353 8.82353 36.2599 8.82353 33.8235V16.1765Z" fill="#2C3345"/>
</svg>
