<svg width="50" height="50" viewBox="0 0 50 50" fill="none" xmlns="http://www.w3.org/2000/svg">
<path d="M30.4488 49.8444C41.6356 47.3356 50 37.2646 50 25.2226C50 11.2926 38.8071 0 25 0C11.1929 0 0 11.2926 0 25.2226C0 37.5315 8.73915 47.781 20.299 50C20.3012 49.3887 20.3002 48.7775 20.2992 48.1662C20.2987 47.8263 20.2981 47.4865 20.2981 47.1466C20.3154 46.9449 20.3154 46.7695 20.3154 46.559C20.0106 46.5919 19.7306 46.6248 19.4621 46.6563C19.2295 46.6837 19.0056 46.71 18.7816 46.7344C16.2741 46.9888 14.0855 46.2959 12.4311 44.3049C12.1165 43.9259 11.8848 43.4788 11.6527 43.0307C11.5033 42.7423 11.3537 42.4536 11.1816 42.1823C10.5009 41.0947 9.80296 40.0159 9.05331 38.9721C8.89164 38.7472 8.65583 38.5807 8.41754 38.4123C8.27481 38.3115 8.13118 38.21 8.00207 38.095C7.92778 38.0311 7.88759 37.9285 7.84633 37.8232C7.82538 37.7697 7.80415 37.7155 7.77803 37.6653C7.83133 37.6442 7.88361 37.6179 7.93558 37.5918C8.03483 37.5419 8.13292 37.4926 8.23472 37.4811C10.2166 37.2969 11.6125 38.2266 12.5862 39.9019C13.8011 41.9893 15.5589 43.1296 17.9458 43.1296C18.4665 43.1296 18.9872 42.9944 19.5041 42.8603C19.6716 42.8168 19.8386 42.7735 20.0052 42.7349C20.1344 42.6998 20.2895 42.498 20.3068 42.3489L20.3165 42.2754C20.4336 41.3878 20.5505 40.5022 20.953 39.6914C21.0616 39.4763 21.183 39.2699 21.3081 39.057C21.3616 38.966 21.4158 38.8738 21.47 38.7792C21.2436 38.7337 21.0199 38.6918 20.7984 38.6504C20.3369 38.5641 19.8847 38.4795 19.4365 38.3669C16.3775 37.5776 13.8528 36.0163 12.388 33.0518C11.8193 31.894 11.5005 30.6485 11.4574 29.3504C11.3884 27.3507 11.4143 25.3421 11.8107 23.3687C12.095 21.9829 12.612 20.6935 13.646 19.6936C13.8701 19.4744 13.9131 19.2814 13.7925 18.9481C13.2152 17.308 13.1549 15.6415 13.646 13.9662C13.7174 13.7179 13.7847 13.4697 13.8536 13.2156C13.8844 13.1017 13.9156 12.9866 13.9476 12.8699C16.3086 13.326 17.7131 14.9486 19.0315 16.7466C20.3644 15.7419 21.9369 15.6368 23.474 15.5341C23.5068 15.5319 23.5397 15.5297 23.5725 15.5275C25.4337 15.4047 27.3035 15.431 29.1561 15.738C30.1212 15.8958 30.7158 16.0976 31.655 16.6677C31.8848 16.4263 32.1105 16.1841 32.335 15.9433C32.9015 15.3354 33.4604 14.7358 34.059 14.1767C34.7225 13.554 35.5497 13.1593 36.4459 12.9488C36.6958 12.8874 36.825 12.9137 36.9284 13.1944C37.6264 15.1328 37.7298 17.0624 36.9629 19.0007C36.8595 19.2639 36.8681 19.4481 37.0835 19.6586C38.3243 20.8602 38.893 22.4126 39.0826 24.0879C39.2549 25.6403 39.3497 27.2016 39.3497 28.7628C39.3497 30.9818 38.7035 33.0167 37.3334 34.7621C36.3683 35.9988 35.1189 36.8847 33.7058 37.5512C32.3357 38.1915 30.9053 38.5599 29.4233 38.7529C29.404 38.7578 29.3848 38.7681 29.3611 38.7809C29.3423 38.791 29.3207 38.8026 29.294 38.8143C30.3108 40.2965 30.4745 41.963 30.4573 43.6909C30.4362 45.7447 30.438 47.7927 30.4488 49.8444Z" fill="#2C3345"/>
</svg>
