<svg width="50" height="50" viewBox="0 0 50 50" fill="none" xmlns="http://www.w3.org/2000/svg">
<g clip-path="url(#clip0_433_2)">
<path d="M19.083 25.7353C19.083 28.5788 21.4209 30.9168 24.2645 30.9168C27.108 30.9168 29.4459 28.5788 29.4459 25.7353C29.4459 22.8918 27.108 20.5538 24.2645 20.5538C21.4209 20.5538 19.083 22.8918 19.083 25.7353Z" fill="#2C3345"/>
<path fill-rule="evenodd" clip-rule="evenodd" d="M36.4148 36.48C37.5888 35.3713 38.3061 33.7406 38.3061 31.7185V18.2814C38.3061 16.3901 37.6538 14.7594 36.5451 13.585C35.3711 12.4109 33.7404 11.8239 31.7833 11.8239H18.3466C16.3899 11.8239 14.6938 12.4109 13.5848 13.52C12.4107 14.694 11.8237 16.3247 11.8237 18.2814V31.6532C11.8237 33.6753 12.4107 35.306 13.5848 36.48C14.7592 37.5889 16.3899 38.176 18.3466 38.176H31.653C33.6096 38.176 35.2404 37.5889 36.4148 36.48ZM16.1763 25.7353C16.1763 21.2488 19.8413 17.647 24.2645 17.647C28.6877 17.647 32.3527 21.312 32.3527 25.7353C32.3527 30.1585 28.751 33.8235 24.2645 33.8235C19.778 33.8235 16.1763 30.2217 16.1763 25.7353ZM33.8233 17.647C34.6354 17.647 35.2939 16.9885 35.2939 16.1764C35.2939 15.3644 34.6354 14.7059 33.8233 14.7059C33.0113 14.7059 32.3527 15.3644 32.3527 16.1764C32.3527 16.9885 33.0113 17.647 33.8233 17.647Z" fill="#2C3345"/>
<path fill-rule="evenodd" clip-rule="evenodd" d="M25 50C38.8072 50 50 38.8072 50 25C50 11.1928 38.8072 0 25 0C11.1928 0 0 11.1928 0 25C0 38.8072 11.1928 50 25 50ZM31.7185 8.82353C34.4579 8.82353 36.8713 9.73654 38.5674 11.4979C40.2635 13.1936 41.1765 15.5421 41.1765 18.2815V31.7185C41.1765 34.5232 40.2635 36.9366 38.5021 38.6328C36.8063 40.2635 34.4579 41.1765 31.6532 41.1765H18.3468C15.6724 41.1765 13.3243 40.3284 11.5629 38.6328C9.73654 36.8713 8.82353 34.4579 8.82353 31.6532V18.2815C8.82353 12.6066 12.6066 8.82353 18.2815 8.82353H31.7185Z" fill="#2C3345"/>
</g>
<defs>
<clipPath id="clip0_433_2">
<rect width="50" height="50" fill="white"/>
</clipPath>
</defs>
</svg>
