<svg width="50" height="50" viewBox="0 0 50 50" fill="none" xmlns="http://www.w3.org/2000/svg">
<path fill-rule="evenodd" clip-rule="evenodd" d="M50 25C50 38.8072 38.8072 50 25 50C11.1928 50 0 38.8072 0 25C0 11.1928 11.1928 0 25 0C38.8072 0 50 11.1928 50 25ZM18.6272 18.75V34.6813H13.8478V18.75H18.6272ZM36.1518 34.6813H31.3724V26.1708C31.3724 23.9531 30.5822 22.849 29.0161 22.849C27.7749 22.849 26.988 23.4673 26.593 24.7052V34.6813H21.8136C21.8136 34.6813 21.8772 20.343 21.8136 18.75H25.5859L25.8775 21.9364H25.9762C26.956 20.343 28.5221 19.2631 30.6698 19.2631C32.3027 19.2631 33.6235 19.7169 34.6317 20.8579C35.6467 21.9999 36.1518 23.5326 36.1518 25.685V34.6813ZM18.7069 14.7669C18.7069 16.0867 17.6011 17.1566 16.2375 17.1566C14.8735 17.1566 13.7681 16.0867 13.7681 14.7669C13.7681 13.4471 14.8735 12.3772 16.2375 12.3772C17.6011 12.3772 18.7069 13.4471 18.7069 14.7669Z" fill="#2C3345"/>
</svg>
