<svg width="50" height="50" viewBox="0 0 50 50" fill="none" xmlns="http://www.w3.org/2000/svg">
<path fill-rule="evenodd" clip-rule="evenodd" d="M25 50C38.8071 50 50 38.8071 50 25C50 11.1929 38.8071 0 25 0C11.1929 0 0 11.1929 0 25C0 38.8071 11.1929 50 25 50ZM26.4314 24.2246C26.4314 18.9202 22.1608 14.6197 16.8924 14.6197C11.6239 14.6197 7.35294 18.9202 7.35294 24.2246C7.35294 29.5291 11.6242 33.8292 16.8924 33.8292C22.1605 33.8292 26.4314 29.5291 26.4314 24.2246ZM36.8958 24.2246C36.8958 19.2303 34.7604 15.1824 32.1261 15.1824C29.4919 15.1824 27.3567 19.2316 27.3567 24.2246C27.3567 29.2176 29.4922 33.2669 32.1264 33.2669C34.7607 33.2669 36.8961 29.2176 36.8961 24.2246H36.8958ZM41.1765 24.2246C41.1765 19.7508 40.4252 16.1242 39.499 16.1242C38.5727 16.1242 37.8218 19.7511 37.8218 24.2246C37.8218 28.6981 38.5724 32.3251 39.499 32.3251C40.4255 32.3251 41.1765 28.6971 41.1765 24.2246Z" fill="#2C3345"/>
</svg>
