<svg width="50" height="50" viewBox="0 0 50 50" fill="none" xmlns="http://www.w3.org/2000/svg">
<path fill-rule="evenodd" clip-rule="evenodd" d="M25 50C38.8071 50 50 38.8071 50 25C50 11.1929 38.8071 0 25 0C11.1929 0 0 11.1929 0 25C0 38.8071 11.1929 50 25 50ZM36.5274 15.6803C36.6509 15.8058 36.72 15.9738 36.7202 16.1487H36.7647V38.1026C36.7647 38.9109 36.1005 39.5662 35.2812 39.5662H14.7188C13.8995 39.5662 13.2353 38.9109 13.2353 38.1026V11.7579C13.2353 10.9495 13.8995 10.2943 14.7188 10.2943H30.816C30.9984 10.2906 31.1747 10.3591 31.3056 10.4845L36.5274 15.6803ZM31.5726 12.6653L31.4984 12.5922H31.5726V12.6653ZM31.5726 12.6653L34.3912 15.4462H31.5726V12.6653ZM35.3554 38.0441H14.7188V11.7579H30.1781V15.373C30.1781 16.1813 30.8423 16.8366 31.6616 16.8366H35.3554V38.0441ZM31.842 24.528H18.1183C17.7414 24.528 17.4359 24.8294 17.4359 25.2012C17.4359 25.5731 17.7414 25.8745 18.1183 25.8745H31.842C32.2189 25.8745 32.5244 25.5731 32.5244 25.2012C32.5244 24.8294 32.2189 24.528 31.842 24.528ZM18.1183 20.1914H31.842C32.2189 20.1914 32.5244 20.4928 32.5244 20.8646C32.5244 21.2365 32.2189 21.5379 31.842 21.5379H18.1183C17.7414 21.5379 17.4359 21.2365 17.4359 20.8646C17.4359 20.4928 17.7414 20.1914 18.1183 20.1914ZM31.842 28.8646H18.1183C17.7414 28.8646 17.4359 29.166 17.4359 29.5378C17.4359 29.9097 17.7414 30.2111 18.1183 30.2111H31.842C32.2189 30.2111 32.5244 29.9097 32.5244 29.5378C32.5244 29.166 32.2189 28.8646 31.842 28.8646ZM17.4359 33.8744C17.4359 33.5026 17.7414 33.2011 18.1183 33.2011H25.8043C26.1812 33.2011 26.4867 33.5026 26.4867 33.8744C26.4867 34.2462 26.1812 34.5476 25.8043 34.5476H18.1183C17.7414 34.5476 17.4359 34.2462 17.4359 33.8744Z" fill="#2C3345"/>
</svg>
