<svg width="20" height="24" viewBox="0 0 20 24" fill="none" xmlns="http://www.w3.org/2000/svg">
<path fill-rule="evenodd" clip-rule="evenodd" d="M19.2418 5.54748C19.2416 5.41162 19.1879 5.28115 19.092 5.18369L15.036 1.1479C14.9344 1.05047 14.7974 0.997243 14.6557 1.00011H2.15227C1.51589 1.00011 1 1.50909 1 2.13695V22.6001C1 23.228 1.51589 23.737 2.15227 23.737H18.1241C18.7605 23.737 19.2764 23.228 19.2764 22.6001V5.54748H19.2418ZM15.1858 2.78495L15.2434 2.84179V5.00179H17.4327L15.2434 2.84179V2.78495H15.1858ZM2.15227 22.5546H18.1817V6.08179H15.3125C14.6761 6.08179 14.1603 5.57281 14.1603 4.94495V2.13695H2.15227V22.5546Z" fill="white"/>
<path d="M19.092 5.18369L19.2345 5.04338L19.2331 5.04191L19.092 5.18369ZM19.2418 5.54748L19.0418 5.54769L19.042 5.74748H19.2418V5.54748ZM15.036 1.1479L15.1771 1.0061L15.1744 1.00353L15.036 1.1479ZM14.6557 1.00011V1.20015L14.6598 1.20007L14.6557 1.00011ZM19.2764 5.54748H19.4764V5.34748H19.2764V5.54748ZM15.1858 2.78495V2.58495H14.6983L15.0453 2.92732L15.1858 2.78495ZM15.2434 5.00179H15.0434V5.20179H15.2434V5.00179ZM17.4327 5.00179V5.20179H17.9202L17.5732 4.85942L17.4327 5.00179ZM15.2434 2.78495H15.4434V2.58495H15.2434V2.78495ZM18.1817 22.5546V22.7546H18.3817V22.5546H18.1817ZM2.15227 22.5546H1.95227V22.7546H2.15227V22.5546ZM18.1817 6.08179H18.3817V5.88179H18.1817V6.08179ZM14.1603 2.13695H14.3603V1.93695H14.1603V2.13695ZM2.15227 2.13695V1.93695H1.95227V2.13695H2.15227ZM18.9495 5.32399C19.0089 5.38436 19.0417 5.46464 19.0418 5.54769L19.4418 5.54727C19.4416 5.3586 19.367 5.17794 19.2345 5.04339L18.9495 5.32399ZM14.8949 1.28967L18.9509 5.32546L19.2331 5.04191L15.177 1.00613L14.8949 1.28967ZM14.6598 1.20007C14.7489 1.19827 14.8345 1.23177 14.8976 1.29227L15.1744 1.00353C15.0342 0.869161 14.8459 0.79622 14.6517 0.800151L14.6598 1.20007ZM2.15227 1.20011H14.6557V0.80011H2.15227V1.20011ZM1.2 2.13695C1.2 1.62208 1.6238 1.20011 2.15227 1.20011V0.80011C1.40798 0.80011 0.8 1.3961 0.8 2.13695H1.2ZM1.2 22.6001V2.13695H0.8V22.6001H1.2ZM2.15227 23.537C1.6238 23.537 1.2 23.115 1.2 22.6001H0.8C0.8 23.341 1.40799 23.937 2.15227 23.937V23.537ZM18.1241 23.537H2.15227V23.937H18.1241V23.537ZM19.0764 22.6001C19.0764 23.115 18.6526 23.537 18.1241 23.537V23.937C18.8684 23.937 19.4764 23.341 19.4764 22.6001H19.0764ZM19.0764 5.54748V22.6001H19.4764V5.54748H19.0764ZM19.2418 5.74748H19.2764V5.34748H19.2418V5.74748ZM15.3839 2.69942L15.3262 2.64258L15.0453 2.92732L15.1029 2.98417L15.3839 2.69942ZM15.0434 2.84179V5.00179H15.4434V2.84179H15.0434ZM15.2434 5.20179H17.4327V4.80179H15.2434V5.20179ZM17.5732 4.85942L15.3839 2.69942L15.1029 2.98417L17.2922 5.14417L17.5732 4.85942ZM15.0434 2.78495V2.84179H15.4434V2.78495H15.0434ZM15.1858 2.98495H15.2434V2.58495H15.1858V2.98495ZM18.1817 22.3546H2.15227V22.7546H18.1817V22.3546ZM17.9817 6.08179V22.5546H18.3817V6.08179H17.9817ZM15.3125 6.28179H18.1817V5.88179H15.3125V6.28179ZM13.9603 4.94495C13.9603 5.6858 14.5682 6.28179 15.3125 6.28179V5.88179C14.7841 5.88179 14.3603 5.45982 14.3603 4.94495H13.9603ZM13.9603 2.13695V4.94495H14.3603V2.13695H13.9603ZM2.15227 2.33695H14.1603V1.93695H2.15227V2.33695ZM2.35227 22.5546V2.13695H1.95227V22.5546H2.35227Z" fill="white"/>
<path d="M15.4506 12.0561H4.79079C4.49805 12.0561 4.26074 12.2902 4.26074 12.579C4.26074 12.8678 4.49805 13.102 4.79079 13.102H15.4506C15.7433 13.102 15.9807 12.8678 15.9807 12.579C15.9807 12.2902 15.7433 12.0561 15.4506 12.0561Z" fill="white" stroke="white" stroke-width="0.4"/>
<path d="M15.4506 8.68767H4.79079C4.49805 8.68767 4.26074 8.9218 4.26074 9.21062C4.26074 9.49944 4.49805 9.73357 4.79079 9.73357H15.4506C15.7433 9.73357 15.9807 9.49944 15.9807 9.21062C15.9807 8.9218 15.7433 8.68767 15.4506 8.68767Z" fill="white" stroke="white" stroke-width="0.4"/>
<path d="M15.4506 15.4245H4.79079C4.49805 15.4245 4.26074 15.6587 4.26074 15.9475C4.26074 16.2363 4.49805 16.4704 4.79079 16.4704H15.4506C15.7433 16.4704 15.9807 16.2363 15.9807 15.9475C15.9807 15.6587 15.7433 15.4245 15.4506 15.4245Z" fill="white" stroke="white" stroke-width="0.4"/>
<path d="M4.79079 18.793C4.49805 18.793 4.26074 19.0271 4.26074 19.3159C4.26074 19.6047 4.49805 19.8389 4.79079 19.8389H10.7608C11.0536 19.8389 11.2909 19.6047 11.2909 19.3159C11.2909 19.0271 11.0536 18.793 10.7608 18.793H4.79079Z" fill="white" stroke="white" stroke-width="0.4"/>
</svg>
