<svg width="50" height="50" viewBox="0 0 50 50" fill="none" xmlns="http://www.w3.org/2000/svg">
<path fill-rule="evenodd" clip-rule="evenodd" d="M25 50C38.8071 50 50 38.8071 50 25C50 11.1929 38.8071 0 25 0C11.1929 0 0 11.1929 0 25C0 38.8071 11.1929 50 25 50ZM20.8125 31.2278L9.75293 26.4197V23.7571L20.8125 18.9705V22.1062L13.0977 25.0557L20.8125 28.1151V31.2278ZM21.835 33.3413H24.1131L28.1521 16.6588H25.8298L21.835 33.3413ZM36.9023 25.0877L29.1768 22.0848V18.9918L40.247 23.7786V26.4198L29.1768 31.2401V28.1258L36.9023 25.0877Z" fill="#2C3345"/>
</svg>
