<?xml version="1.0" encoding="UTF-8"?>
<svg xmlns="http://www.w3.org/2000/svg" xmlns:xlink="http://www.w3.org/1999/xlink" viewBox="0 0 2127.25 2447.41">
  <defs>
    <style>
      .cls-1 {
        fill: url(#linear-gradient-2);
      }

      .cls-2 {
        fill: #fff;
      }

      .cls-3 {
        fill: #c0c9d7;
      }

      .cls-4 {
        isolation: isolate;
      }

      .cls-5 {
        mix-blend-mode: soft-light;
      }

      .cls-6 {
        fill: #d8dee8;
      }

      .cls-7 {
        fill: url(#linear-gradient-5);
      }

      .cls-8 {
        fill: url(#linear-gradient-6);
        mix-blend-mode: multiply;
        opacity: .3;
      }

      .cls-9 {
        fill: #eaedf4;
      }

      .cls-10 {
        fill: url(#linear-gradient-3);
      }

      .cls-11 {
        fill: url(#linear-gradient);
      }

      .cls-12 {
        fill: url(#linear-gradient-4);
      }
    </style>
    <linearGradient id="linear-gradient" x1="436.38" y1="1167.3" x2="6.18" y2="1214.24" gradientTransform="translate(312.71)" gradientUnits="userSpaceOnUse">
      <stop offset="0" stop-color="#444c8d"/>
      <stop offset="1" stop-color="#26274f"/>
    </linearGradient>
    <linearGradient id="linear-gradient-2" x1="815.44" y1="82.88" x2="-248.34" y2="3704.42" xlink:href="#linear-gradient"/>
    <linearGradient id="linear-gradient-3" x1="416.82" y1="-6.32" x2="-833.41" y2="3379.71" gradientTransform="translate(312.71)" gradientUnits="userSpaceOnUse">
      <stop offset="0" stop-color="#fcc345"/>
      <stop offset="1" stop-color="#ee7058"/>
    </linearGradient>
    <linearGradient id="linear-gradient-4" x1="680.29" y1="1155.48" x2="1650.57" y2="127.35" gradientTransform="matrix(1, 0, 0, 1, 0, 0)" xlink:href="#linear-gradient"/>
    <linearGradient id="linear-gradient-5" x1="1209.15" y1="75.36" x2="494.87" y2="2320.24" gradientUnits="userSpaceOnUse">
      <stop offset="0" stop-color="#cc90bf"/>
      <stop offset="1" stop-color="#7c6fb1"/>
    </linearGradient>
    <linearGradient id="linear-gradient-6" x1="384.97" y1="952.03" x2="1421.66" y2="952.03" xlink:href="#linear-gradient-5"/>
  </defs>
  <g class="cls-4">
    <g id="katman_2" data-name="katman 2">
      <g id="katman_1" data-name="katman 1">
        <g>
          <g>
            <path class="cls-3" d="M866.7,664.32v50.42c0,18.96,14.88,34.51,33.29,34.74l71.43,.89c6.12,45.07,18.25,88.35,35.57,129l-63.98,36.2c-16.07,9.09-21.57,30.04-12.3,46.83l24.71,44.79c9.32,16.89,30.02,23.34,46.26,14.36l66.16-36.61c26.89,35.96,58.51,68.47,94.01,96.57l-39.67,67.58c-9.59,16.33-3.9,38.08,12.73,48.63l44.46,28.21c16.81,10.67,38.37,6.04,48.14-10.38l40.87-68.74c40.94,18.82,84.92,32.65,131.16,40.55v83.43c0,19.87,16.35,36.95,36.57,38.16l54.13,3.24c20.49,1.22,37.14-14.06,37.14-34.15v-84.35c47.64-3.36,93.67-13.1,137.17-28.44l44.05,75.66c10.62,18.24,34.2,25.59,52.71,16.36l49.5-24.69c18.72-9.34,25.15-31.84,14.32-50.2l-44.41-75.34c39.72-26.62,75.52-58.61,106.3-95.01l77.03,44.67c19.2,11.13,43.84,5.85,55-11.86l29.77-47.26c11.23-17.83,4.56-41.27-14.86-52.29l-76.16-43.23c20.45-43.29,34.84-89.92,42.12-138.9l86.29,1.07c22.62,.28,41.02-16.6,41.02-37.72v-56.15c0-21.11-18.4-38.26-41.02-38.3l-84.06-.14c-5.71-50.15-18.84-98.12-38.27-142.87l70.07-38.78c19.42-10.75,26.09-34.09,14.86-52.08l-29.77-47.68c-11.16-17.87-35.8-23.5-55-12.64l-67.72,38.31c-31.03-39.32-67.66-74.01-108.64-102.98l37.44-62.98c10.83-18.21,4.4-40.81-14.32-50.41l-49.5-25.39c-18.51-9.49-42.09-2.48-52.71,15.61l-36.13,61.56c-45.81-17.58-94.53-28.94-145.08-33.15V110.38c0-20.09-16.66-35.61-37.14-34.68l-54.13,2.47c-20.23,.92-36.57,17.78-36.57,37.65v67.35c-49.03,7.75-95.52,22.21-138.54,42.25l-33.48-56.8c-9.76-16.56-31.33-21.49-48.14-11.06l-44.46,27.59c-16.63,10.32-22.32,31.99-12.73,48.45l33.41,57.38c-36.54,29.38-68.8,63.53-95.83,101.41l-58.08-32.96c-16.24-9.22-36.94-3.06-46.26,13.7l-24.71,44.44c-9.26,16.66-3.77,37.68,12.3,47.01l58.81,34.11c-16.44,41.44-27.48,85.54-32.27,131.49l-69.56-.12c-18.41-.03-33.29,15.31-33.29,34.27Zm241.3,19.08c0-192.49,156.29-352.34,355.12-357.18,205.82-5.01,378.06,156.93,378.06,361.87s-172.24,364.67-378.06,357.03c-198.83-7.38-355.12-169.23-355.12-361.72Z"/>
            <polygon class="cls-3" points="1693.43 131.82 1742.97 130.11 1760.06 174.53 1693.43 131.82"/>
            <polygon class="cls-3" points="1202.19 152.32 1145.06 152.89 1145.06 195.03 1202.19 152.32"/>
            <polygon class="cls-3" points="984.48 355.59 927.53 357.89 941.77 389.77 984.48 355.59"/>
            <polygon class="cls-3" points="895.08 630.65 837.56 635.2 856.35 663.11 895.08 630.65"/>
            <polygon class="cls-3" points="990.74 1025.27 934.94 1033.24 928.1 987.69 990.74 1025.27"/>
            <polygon class="cls-3" points="1204.28 1230.84 1154.17 1239.95 1150.19 1202.93 1204.28 1230.84"/>
            <polygon class="cls-3" points="1454.84 1319.67 1499.82 1311.7 1461.1 1254.18 1454.84 1319.67"/>
            <polygon class="cls-3" points="1698.56 1271.27 1750.95 1260.45 1710.52 1211.48 1698.56 1271.27"/>
            <polygon class="cls-3" points="1992.96 332.83 1938.29 334.54 1959.93 374.4 1992.96 332.83"/>
            <polygon class="cls-3" points="2101.72 761.62 2051.61 769.02 2055.6 728.02 2101.72 761.62"/>
            <polygon class="cls-3" points="1994.1 1061.71 1945.12 1069.69 1941.14 1037.23 1994.1 1061.71"/>
          </g>
          <path class="cls-9" d="M810.23,669.12v50.83c0,19.11,15.01,34.8,33.57,35.03l72.02,.9c6.17,45.44,18.4,89.07,35.87,130.05l-64.51,36.49c-16.21,9.17-21.75,30.28-12.41,47.21l24.92,45.16c9.4,17.03,30.27,23.53,46.65,14.47l66.71-36.91c27.12,36.25,58.99,69.02,94.79,97.35l-40,68.13c-9.66,16.46-3.93,38.39,12.84,49.03l44.83,28.44c16.95,10.75,38.69,6.09,48.54-10.47l41.2-69.3c41.28,18.97,85.62,32.92,132.25,40.89v84.11c0,20.03,16.48,37.26,36.87,38.47l54.58,3.26c20.66,1.23,37.45-14.18,37.45-34.43v-85.03c48.04-3.39,94.45-13.2,138.3-28.67l44.41,76.28c10.71,18.39,34.49,25.8,53.15,16.49l49.91-24.89c18.88-9.41,25.36-32.1,14.44-50.61l-44.78-75.95c40.05-26.84,76.15-59.09,107.18-95.79l77.67,45.04c19.36,11.23,44.2,5.9,55.45-11.96l30.02-47.65c11.33-17.98,4.6-41.61-14.98-52.72l-76.79-43.58c20.62-43.64,35.12-90.65,42.47-140.03l87,1.08c22.81,.28,41.36-16.74,41.36-38.02v-56.6c0-21.28-18.55-38.57-41.36-38.61l-84.75-.15c-5.76-50.56-18.99-98.92-38.58-144.03l70.66-39.09c19.58-10.83,26.31-34.37,14.98-52.51l-30.02-48.07c-11.25-18.02-36.09-23.69-55.45-12.74l-68.28,38.63c-31.29-39.65-68.22-74.61-109.54-103.82l37.75-63.49c10.92-18.36,4.44-41.14-14.44-50.82l-49.91-25.6c-18.66-9.57-42.44-2.5-53.15,15.74l-36.43,62.06c-46.19-17.72-95.31-29.18-146.28-33.42V110.66c0-20.25-16.8-35.9-37.45-34.96l-54.58,2.49c-20.39,.93-36.87,17.92-36.87,37.95v67.9c-49.44,7.82-96.31,22.39-139.69,42.59l-33.76-57.26c-9.84-16.7-31.59-21.67-48.54-11.15l-44.83,27.81c-16.77,10.4-22.5,32.25-12.84,48.85l33.68,57.85c-36.84,29.61-69.37,64.05-96.63,102.23l-58.56-33.23c-16.38-9.29-37.25-3.09-46.65,13.81l-24.92,44.81c-9.34,16.8-3.8,37.99,12.41,47.39l59.3,34.38c-16.57,41.77-27.71,86.24-32.54,132.56l-70.13-.12c-18.57-.03-33.57,15.44-33.57,34.55Zm243.31,19.24c0-194.06,157.59-355.21,358.06-360.09,207.53-5.05,381.2,158.21,381.2,364.81s-173.67,367.64-381.2,359.94c-200.48-7.44-358.06-170.6-358.06-364.67Z"/>
        </g>
        <g>
          <g>
            <path class="cls-11" d="M1262.79,83.42l262.09,2178.44c3.93,32.66-18.58,61.94-50.12,65.07l-1091.64,119.85c-66.87,4.16-103.49-30.01-107.61-64.74L.34,65.99C-3.76,31.45,29.05,.17,96.2,.17L1197.77,23.37c31.89,.53,61.1,27.55,65.01,60.04Z"/>
            <path class="cls-1" d="M1311.92,79.67l263.53,2189.33c3.95,32.83-18.64,62.26-50.29,65.41l-1131.72,112.68c-35.48,3.53-68-22.14-72.15-57.05L44.58,62.03C40.45,27.31,66.51-.59,102.38,.01L1246.65,19.32c32.01,.54,61.34,27.7,65.27,60.35Z"/>
            <path class="cls-6" d="M1290.44,200.43l244.26,2029.95c3.69,30.67-17.46,58.11-47.09,60.99l-1064.34,103.46c-32.98,3.21-63.21-20.75-67.07-53.25L100.47,191.04c-3.84-32.33,20.35-58.48,53.67-58.13l1075.27,11.45c29.93,.32,57.36,25.55,61.04,56.07Z"/>
            <path class="cls-10" d="M719.68,78.16c1.4,11.65-6.97,20.98-18.69,20.84-11.74-.15-22.4-9.74-23.79-21.41-1.4-11.68,7-21.01,18.74-20.83,11.73,.17,22.35,9.76,23.75,21.41Z"/>
            <g class="cls-5">
              <path class="cls-2" d="M1106.43,1563.05c-217.89-402.86-543.4-523.44-641.4-938.63-52.97-224.43-16.88-439.23,43.91-617.55L102.38,0c-35.87-.6-61.93,27.3-57.8,62.02L321.29,2390.04c4.15,34.91,36.67,60.58,72.15,57.05l889.64-88.57c6.58-360.97-79.52-615.88-176.65-795.45Z"/>
            </g>
          </g>
          <g>
            <path class="cls-3" d="M504.04,499.26c8.77,77.17-39.68,141.35-108.65,143.25-69.42,1.9-133.07-59.95-141.74-138.05-8.65-77.96,40.87-141.87,110.19-142.85,68.86-.97,131.45,60.61,140.21,137.65Z"/>
            <path class="cls-3" d="M1255.88,483.65c9.07,74.39-35.23,136.21-99.32,137.97-64.5,1.77-124.38-57.88-133.37-133.14-8.97-75.13,36.29-136.69,100.7-137.59,64.01-.9,122.93,58.49,131.99,132.77Z"/>
            <path class="cls-3" d="M816.05,351.77l-131.7,1.84c-25.93,.36-44.24,24.58-40.84,54.1l17.86,154.88c3.42,29.65,27.29,53.13,53.26,52.44l131.88-3.5c25.58-.68,43.46-25.01,40.01-54.34l-18.05-153.21c-3.44-29.21-26.89-52.58-52.43-52.23Z"/>
            <path class="cls-3" d="M940.03,942.71c9.02,76.51-37.35,141.28-103.97,144.58-67.05,3.32-128.98-56.82-137.9-134.24-8.91-77.29,38.48-141.81,105.44-144.22,66.53-2.4,127.43,57.5,136.44,133.88Z"/>
            <path class="cls-3" d="M1309.92,926.89c9.16,75.12-35.18,138.67-99.41,141.85-64.64,3.2-124.72-55.88-133.79-131.88-9.06-75.87,36.24-139.18,100.8-141.5,64.15-2.31,123.26,56.53,132.4,131.53Z"/>
            <path class="cls-3" d="M483.52,816.79l-137.01,4.91c-26.98,.97-46.17,26.37-42.8,56.76l17.7,159.41c3.39,30.51,28.1,54.2,55.12,52.88l137.21-6.67c26.6-1.29,45.34-26.82,41.92-56.99l-17.91-157.64c-3.41-30.05-27.67-53.63-54.23-52.67Z"/>
            <path class="cls-3" d="M609.14,1423.62c8.95,78.74-39.64,146.69-108.96,151.68-69.78,5.02-133.88-55.59-142.72-135.3-8.83-79.57,40.85-147.28,110.52-151.33,69.22-4.03,132.23,56.34,141.16,134.95Z"/>
            <path class="cls-3" d="M922.43,1258.66l-132.33,7.69c-26.06,1.51-44.42,27.15-40.94,57.27l18.22,158.01c3.49,30.24,27.52,53.27,53.62,51.41l132.51-9.42c25.7-1.83,43.62-27.56,40.1-57.47l-18.41-156.26c-3.51-29.79-27.11-52.72-52.77-51.23Z"/>
            <path class="cls-3" d="M1294.85,1237.03l-127.57,7.41c-25.12,1.46-42.66,26.59-39.13,56.16l18.53,155.08c3.55,29.68,26.86,52.31,52.01,50.52l127.73-9.08c24.77-1.76,41.91-27,38.33-56.36l-18.69-153.39c-3.56-29.24-26.47-51.77-51.21-50.34Z"/>
            <path class="cls-3" d="M1048.05,1859c9.2,78.04-37.27,146.51-104.21,152.86-67.38,6.39-129.71-52.54-138.82-131.52-9.09-78.85,38.42-147.11,105.7-152.55,66.84-5.4,128.14,53.31,137.33,131.21Z"/>
            <path class="cls-3" d="M589.07,1750.12l-137.72,11.11c-27.12,2.19-46.37,29.09-42.93,60.11l18.07,162.7c3.46,31.14,28.34,54.34,55.5,51.79l137.92-12.94c26.74-2.51,45.53-29.51,42.03-60.3l-18.27-160.85c-3.48-30.66-27.9-53.76-54.6-51.61Z"/>
            <path class="cls-3" d="M1349.67,1688.78l-127.85,10.31c-25.17,2.03-42.74,27.87-39.17,57.73l18.71,156.61c3.58,29.98,26.97,52.37,52.17,50l128.01-12.01c24.83-2.33,41.98-28.26,38.37-57.91l-18.87-154.9c-3.6-29.53-26.57-51.84-51.37-49.84Z"/>
          </g>
        </g>
        <g>
          <path class="cls-12" d="M1193.18,427.45H498.31c-13.32,0-26.15,2.28-38.36,5.01-.38,.08-.74,.62-1.11,.7,.11-.76,.23-1.32,.34-2.12-78.56,17.37-131.29,87.6-122.66,171.32l.22,2.14,72.96,707.71,.21,2.09c9.95,96.54,98.25,170.28,196.28,164.79l689.57-38.6c30.33-1.7,57.78-11.65,80.5-27.62,44.79-31.39,71.27-86.08,65.13-146.73l-67.87-672.01c-9.26-91.56-89.63-166.68-180.35-166.68Z"/>
          <g>
            <path class="cls-7" d="M1417.64,593.73l67.65,669.94c6.11,60.5-19,115.2-63.56,146.51-22.6,15.92-48.68,25.89-78.85,27.58l-685.91,38.45c-97.5,5.46-188.05-67.92-197.97-164.2l-72.92-707.91c-8.6-83.5,45.76-154.31,123.9-171.65,12.14-2.72,26.25-4.99,39.5-4.99h691.17c90.24,0,167.77,74.94,177,166.27Z"/>
            <g>
              <path class="cls-2" d="M821.16,1326.44c-13.79,.67-26.67-1.84-38.28-7.45-42.68-20.63-63.29-80.52-57.88-168.47,5.17-84.05,33.14-184.8,78.57-283.36,81.46-176.72,196.99-299.55,281-300.18,13.34-.1,25.78,2.86,36.96,8.81,40.88,21.72,60.57,80.6,55.57,165.96-4.79,81.75-31.37,179.96-75.02,276.86-79.51,176.49-195.02,303.68-280.91,307.83Zm265.69-737c-34.94,.31-79.97,28.08-126.9,78.42-49.06,52.63-97.11,127.2-135.23,210.03-44.25,96.15-71.46,194.08-76.45,275.4-4.69,76.48,11.35,129.47,43.92,145.25,7.9,3.83,16.86,5.53,26.63,5.07,35.93-1.69,81.84-31.54,129.18-83.81,48.94-54.04,96.33-129.23,133.52-211.64,42.73-94.7,68.73-190.35,73.39-269.64,4.37-74.41-11.03-126.55-42.32-143.13-7.62-4.04-16.28-6.05-25.74-5.96Z"/>
              <path class="cls-2" d="M959.24,1105.92c-108.41,3.99-212.9-7.71-293.74-33.15-85.5-26.9-135.78-66.85-141-112.32-5.32-46.38,36.95-90.6,118.46-124.28,77.3-31.93,181.41-51.3,292.62-54.71,4.38-.14,8.79-.24,13.14-.33,107.15-2.05,208.1,11.19,284.74,37.09,79.67,26.93,125.95,65.59,130.84,109.04,4.99,44.31-33.63,86.88-109.22,120.1-72.93,32.05-173.14,52.7-282.72,58-4.37,.21-8.77,.4-13.12,.56Zm-8.21-302.15c-4.27,.09-8.58,.2-12.88,.34-108.55,3.46-209.82,22.36-284.64,53.37-70.86,29.37-109.42,66.63-105.36,102.03,3.97,34.61,49.02,67.98,123.17,91.4,78.21,24.7,179.8,36.13,285.61,32.37,4.27-.15,8.58-.33,12.87-.53,107.02-5.04,204.62-24.96,275.35-55.94,65.93-28.88,101.33-64.79,97.51-98.69-3.73-33.16-45.37-65.48-114.63-88.8-74.22-24.99-172.43-37.68-276.99-35.55Z"/>
              <path class="cls-2" d="M1159.68,1304.46h0c-83.53,3.44-223-108.61-339.91-279.57-65.27-95.45-113.56-192.71-135.89-276.09-23.38-87.31-15.08-147.44,23.2-170.39,10.41-6.25,22.76-9.11,36.62-9.21,86.37-.65,227.31,119.85,342.28,291.12,63.07,93.95,109.39,190.16,130.69,271.08,22.22,84.44,14.35,141.22-21.85,165.02-9.9,6.51-21.86,8.04-35.13,8.04Zm-413.62-712.04c-9.82,.09-18.4,2.29-25.48,6.55-29.2,17.56-34.32,71.25-14.01,147.18,21.59,80.69,68.66,176.59,132.26,269.71,54.75,80.17,117.66,151.5,177.08,201.01,56.81,47.33,107.16,72.35,141.92,70.71,0,0,0,0,0,0,9.41-.44,17.6-2.89,24.35-7.32,27.72-18.19,32.48-70.75,13.08-144.37-20.68-78.49-65.9-172.09-127.61-263.89-53.73-79.94-116.18-152.15-175.9-203.26-57.79-49.45-109.59-76.63-145.7-76.32Z"/>
              <path class="cls-2" d="M1024.47,941.51c3.96,38.91-24.3,71.46-63.27,72.7-39.14,1.24-74.24-29.53-78.24-68.74-4.01-39.22,24.63-71.79,63.82-72.73,39.02-.94,73.74,29.86,77.7,68.78Z"/>
            </g>
            <path class="cls-8" d="M1421.66,1407.56c-22.6,15.92-50.03,24.99-80.2,26.68l-685.99,38.26c-97.51,5.44-186.76-66.2-196.68-162.48l-72.92-707.95c-8.6-83.5,45.2-153.46,123.35-170.79-1.03,7.14-1.3,12.48-1.5,15.23-4.04,56.46,6.07,116.09,36.76,168.06,59.84,101.39,168.38,126.32,268.33,162.64,106.86,38.79,220.99,125.75,258.63,234.88,16.41,47.58,16.98,98.12,28.92,146.43,35.79,145.06,134.7,263.79,289.89,252.82,10.2-.74,20.72-2.26,31.41-3.77Z"/>
          </g>
        </g>
      </g>
    </g>
  </g>
</svg>