<?xml version="1.0" encoding="UTF-8"?>
<svg id="katman_2" data-name="katman 2" xmlns="http://www.w3.org/2000/svg" viewBox="0 0 216.88 251.53">
  <defs>
    <style>
      .cls-1 {
        fill: #fff;
      }

      .cls-2 {
        fill: #e47272;
      }

      .cls-3 {
        fill: #f2c7c4;
      }

      .cls-4 {
        fill: #d9dade;
      }

      .cls-5 {
        fill: #ebf4fa;
      }

      .cls-6 {
        fill: #e0954a;
      }

      .cls-7 {
        fill: #3a6885;
      }

      .cls-8 {
        fill: #345870;
      }

      .cls-9 {
        fill: #5186c7;
      }

      .cls-10 {
        fill: #69a0e1;
      }
    </style>
  </defs>
  <g id="OBJECTS">
    <g>
      <g>
        <path class="cls-3" d="M169.54,212.23s22.39,6.35,33,6.78l12.71,5.8c1.69,.77,2.17,2.95,.95,4.36h0c-.68,.79-1.75,1.13-2.76,.89l-11.32-2.72-28.5,.22-4.08-15.32Z"/>
        <path class="cls-3" d="M162.04,225.67c1.23,6.9,16.92,4.39,22.37,4.39,4.11,0,11.91-.17,15.49-.25,1.13-.03,2.12-.75,2.49-1.82h0c.55-1.59-.47-3.3-2.14-3.56l-12.72-1.99-19.42-10.59-6.08,13.82Z"/>
        <path class="cls-3" d="M176.29,214.29l26.25,3.06,7.98,7.64c1,.96,1.1,2.52,.24,3.6h0c-.87,1.09-2.43,1.32-3.58,.54l-6.93-4.69-23.96,.57v-10.72Z"/>
      </g>
      <path class="cls-3" d="M160.73,77.13c10.11,39.93,14.54,120.56,14.54,120.56l-29.69-1.4-3.1-111.54,18.25-7.62Z"/>
      <path class="cls-3" d="M67.63,73.58c-14.84,41.08-10.62,80.59-30.17,143.75l17.39,8.35c23.59-41.53,36.32-139.98,36.32-139.98l-23.53-12.11Z"/>
      <g>
        <path class="cls-3" d="M47.34,212.23s-22.39,6.35-33,6.78l-12.71,5.8c-1.69,.77-2.17,2.95-.95,4.36H.68c.68,.79,1.75,1.13,2.76,.89l11.32-2.72,28.5,.22,4.08-15.32Z"/>
        <path class="cls-3" d="M54.84,225.67c-1.23,6.9-16.92,4.39-22.37,4.39-4.11,0-11.91-.17-15.49-.25-1.13-.03-2.12-.75-2.49-1.82h0c-.55-1.59,.47-3.3,2.14-3.56l12.72-1.99,19.42-10.59,6.08,13.82Z"/>
        <path class="cls-3" d="M40.59,214.29l-26.25,3.06-7.98,7.64c-1,.96-1.1,2.52-.24,3.6h0c.87,1.09,2.43,1.32,3.58,.54l6.93-4.69,23.96,.57v-10.72Z"/>
      </g>
      <path class="cls-8" d="M78.44,146.26l-13.9,46.63s-2.34,37.18,43.2,36.35c45.54-.84,52.99-28.61,52.99-28.61l-19.69-54.37h-62.6Z"/>
      <path class="cls-10" d="M69.91,176.2c-.62,3.18-.98,4.6-.98,4.6,0,0,34.74,17.01,88.29-.94l-.51-6.13-3.56-41.94h.02s1.98-.7,1.98-.7l.38-.13,22.1-7.7c-.87-3.25-1.72-6.35-2.54-9.3-6.81-24.39-12-38.73-17.32-43.43-4.55-4.01-11.98-3.1-22.54,1.28-6.06,2.5-13.14,6.14-21.3,10.65,0,0-8.36-5.54-18.2-10-8.99-4.09-19.19-7.27-25.33-4.48-8.02,3.64-14.99,30.13-18.22,44.38-1.21,5.38-1.9,9.02-1.9,9.02l23.34,6.14,2.63,.69,.31,.09,.11,.03c-2.92,26.26-5.46,41.08-6.78,47.88Z"/>
      <path class="cls-9" d="M68.93,180.8s34.74,17.01,88.29-.94l-.51-6.13c-27.02,5.02-68.73,3.47-86.8,2.48-.62,3.18-.98,4.6-.98,4.6Z"/>
      <path class="cls-9" d="M153.99,123.42l1.17,7.67,.38-.13,22.1-7.7c-.87-3.25-1.72-6.35-2.54-9.3l-21.1,9.46Z"/>
      <path class="cls-9" d="M94.72,78.89c0,11.54,9.34,20.88,20.87,20.88s20.88-9.34,20.88-20.88c0-2.49-.44-4.87-1.23-7.08-6.06,2.5-13.14,6.14-21.3,10.65,0,0-8.36-5.54-18.2-10-.66,2.03-1.02,4.19-1.02,6.43Z"/>
      <g>
        <path class="cls-9" d="M97.52,151.59c1.49-.92,3.83-.63,5.54-.78,1.84-.16,3.67-.37,5.5-.63,3.7-.52,7.35-1.26,10.97-2.15,7.28-1.79,14.34-4.22,21.06-7.55,1.64-.81,3.05,1.61,1.41,2.49-6.82,3.67-14.01,6.76-21.47,8.87-3.73,1.06-7.56,1.85-11.39,2.45-1.86,.29-3.73,.52-5.6,.7-1.9,.19-4.27,.76-6.03-.11-1.36-.67-1.16-2.59,0-3.31Z"/>
        <path class="cls-9" d="M97.59,140.68c1.6-.59,3.68,.15,5.34,.3,1.84,.18,3.69,.27,5.54,.27,3.62,0,7.27-.32,10.81-1.08,1.69-.36,2.36,2.11,.68,2.61-3.77,1.11-7.57,1.86-11.49,2.14-1.91,.14-3.83,.16-5.74,.06-1.98-.1-4.34-.02-5.95-1.32-1.16-.94-.31-2.57,.81-2.99Z"/>
      </g>
      <g>
        <g>
          <path class="cls-8" d="M99.04,185.19c-7.19-9.42-52.96-53.91-66.84-32.28-13.87,21.62,3.78,53.32,35.5,68.6,31.71,15.28,58.93-.17,31.34-36.32Z"/>
          <path class="cls-7" d="M30.49,169.84c4.6,10.6,12.2,19.53,20.59,27.33,4.42,4.11,9.13,7.88,13.95,11.51,4.64,3.49,9.32,6.96,14.14,10.2,4.82,3.24,9.98,5.87,15.89,6.09,1.3,.05,1.15,1.86-.07,1.97-5.35,.44-10.48-2-14.91-4.76-4.93-3.06-9.58-6.62-14.24-10.07-9.74-7.2-19.22-14.94-26.54-24.68-3.98-5.3-7.24-11-9.51-17.24-.17-.46,.49-.83,.69-.36Z"/>
          <path class="cls-7" d="M84.87,170.42c8.31,6.34,15.6,14.23,20.65,23.43,1.43,2.6,2.7,5.28,3.82,8.03,.55,1.36-1.53,2.3-2.08,.93-3.82-9.52-9.41-18.32-16.46-25.78-2-2.12-4.12-4.15-6.37-6.01-.36-.3,.05-.9,.43-.6Z"/>
          <g>
            <path class="cls-1" d="M167.49,247.52l13.39-34.48c-4.7-1.39-8.76-1.8-8.76-1.8l-17.4,33.02c10.31,4.09,12.77,3.26,12.77,3.26Z"/>
            <path class="cls-7" d="M158.79,241.74c-1.26,.99-2.62,1.84-4.07,2.53-1.88-.75-4.33-1.81-7.34-3.09-2.79-1.19-6.08-2.61-9.82-4.21-4.05-1.73-8.65-3.67-13.78-5.77-.12-6.31,.68-13.28,2.69-19.32h.01c10.36,2.05,26.91-.44,38.82-.87,3.07-.12,5.48-.08,6.8,.22,1.39,1.71-1.87,21.52-13.32,30.49Z"/>
            <path class="cls-6" d="M106.78,205.26c-1.53-.72-3.17-1.5-4.93-2.39,1.76,.89,3.39,1.69,4.93,2.39Z"/>
            <path class="cls-6" d="M91.24,197.33h0c.58,.32,1.14,.62,1.69,.92-.55-.31-1.11-.61-1.69-.92Z"/>
            <path class="cls-3" d="M126.48,211.89c-2.01,6.04-2.81,13.01-2.69,19.32-8.77-3.6-20.19-4.67-31.79-8.97l-.77-24.9c.58,.31,1.14,.6,1.69,.9,1.11,.59,2.19,1.16,3.22,1.7,1.01,.54,2,1.05,2.95,1.54h.01c.94,.49,1.86,.96,2.73,1.39h.01c1.76,.89,3.39,1.69,4.93,2.39,2.69,1.26,5.05,2.26,7.26,3.11,.62,.24,1.23,.46,1.83,.68,.31,.1,.61,.21,.92,.3,.59,.22,1.17,.4,1.76,.57,.29,.09,.58,.18,.89,.27,.57,.17,1.14,.34,1.72,.49,1.74,.45,3.48,.85,5.32,1.21Z"/>
            <polygon class="cls-3" points="92.01 222.24 91.24 197.34 91.24 197.33 91.23 197.33 92.01 222.24"/>
            <g>
              <path class="cls-1" d="M147.53,241.26c-2.88-1.23-6.26-2.69-10.1-4.32,3.13-1.06,8.75,.13,10.1,4.32Z"/>
              <path class="cls-1" d="M172.12,211.25c3,4.41-.39,23.69-13.32,30.49-4.66-13.62,.52-31.26,13.32-30.49Z"/>
              <path class="cls-1" d="M127.34,203.24c-1.3,.1-2.23,1.14-2.51,2.5-.62,2.98,1.55,6.67,3.32,8.97,1.76,2.29,3.9,4.09,6.31,5.29-1.94,.1-3.82,.55-5.56,1.43-2.52,1.27-4.99,3.4-6.24,6.18-1.12,2.51-.71,6.47,2.21,7.71,2.9,1.23,5.71-1.39,7.5-3.31,2.09-2.25,4-5.34,4.78-8.66-.17,2.2-.09,4.44,.16,6.67,.04,.36,.5,.33,.49-.02-.07-2.49,.14-4.94,.5-7.36,.18-1.19,.41-2.37,.7-3.51,.28-1.09,.81-2.22,.94-3.36,.06-.55-.65-1-.96-.53-.52,.78-.76,1.87-.98,2.86-.45-5.12-3.29-10.49-7.18-13.48-1.02-.78-2.27-1.47-3.48-1.38Zm5.55,25.95c-1.46,2.05-3.62,4.61-6.15,5.01-1.27,.2-2.48-.44-3.08-1.81-.63-1.45-.38-3.01,.24-4.27,1.17-2.38,3.31-4.18,5.5-5.33,2.14-1.12,4.54-1.65,6.99-1.61,0,.02-.02,.03-.02,.04-.9,2.88-1.77,5.57-3.48,7.97Zm-2.26-23.14c1.88,1.67,3.44,3.83,4.51,6.2,1.08,2.39,1.61,4.95,1.82,7.52-.04-.02-.07-.05-.11-.07-2.45-.92-4.74-2.54-6.62-4.58-1.77-1.93-3.45-4.55-4.04-7.19-.31-1.37-.06-3.2,1.41-3.33,1.08-.09,2.18,.7,3.03,1.45Z"/>
              <path class="cls-1" d="M142.87,217.27c-1.46,4.52-1.37,9.8-.1,14.64,.1,.38,.69,.28,.61-.11-.49-2.36-.71-4.77-.64-7.13,.07-2.39,.49-4.63,1.08-6.87,.06-.21,.04-.52-.16-.67-.08-.06-.14-.11-.24-.13-.21-.05-.46,.06-.53,.28Z"/>
              <path class="cls-1" d="M148.84,217.18c-1.94,4.33-2.83,9.46-2.91,14.43,0,.58,.79,.81,.83,.21,.16-2.43,.5-4.84,1-7.18,.51-2.4,1.3-4.63,2.11-6.89,.26-.72-.73-1.26-1.03-.58Z"/>
              <path class="cls-1" d="M154.09,217.33c-.05,.01-.11,.02-.16,.03-.19,.04-.28,.25-.32,.43-.29,1.22-.71,2.39-.98,3.63-.27,1.23-.48,2.48-.65,3.75-.32,2.49-.42,5.01-.29,7.57,.03,.5,.8,.59,.8,.09,0-2.49,.16-4.98,.5-7.4,.16-1.17,.37-2.33,.63-3.48,.28-1.26,.53-2.58,1-3.75,.07-.19,.04-.41-.07-.59-.03-.04-.06-.09-.08-.13-.09-.15-.24-.18-.38-.15Z"/>
            </g>
            <polygon class="cls-8" points="90.97 224.62 107.08 228.49 114.61 205.74 87.52 189.9 90.97 224.62"/>
          </g>
        </g>
        <g>
          <path class="cls-8" d="M170.75,167.39c-11.43,3.13-69.85,28.84-55.02,49.82,14.83,20.98,50.84,16.52,76.91-7.13,26.07-23.65,21.98-54.68-21.89-42.69Z"/>
          <g>
            <path class="cls-1" d="M63.17,251.48l-14.61-33.98c4.65-1.56,8.69-2.11,8.69-2.11l18.56,32.37c-10.16,4.45-12.65,3.71-12.65,3.71Z"/>
            <path class="cls-7" d="M102.88,214.42c2.22,5.96,3.27,12.9,3.37,19.21-5.05,2.28-9.58,4.38-13.57,6.25-3.68,1.72-6.91,3.26-9.66,4.55-2.96,1.38-5.37,2.53-7.22,3.35-1.48-.63-2.86-1.44-4.16-2.38-11.77-8.56-15.73-28.25-14.4-30,1.3-.35,3.71-.48,6.79-.47,11.92,0,28.54,1.91,38.83-.51h.01Z"/>
            <path class="cls-6" d="M122.33,207.09c1.51-.77,3.11-1.61,4.84-2.57-1.73,.95-3.33,1.81-4.84,2.57Z"/>
            <path class="cls-6" d="M137.58,198.61h0c-.56,.34-1.11,.66-1.65,.97,.54-.33,1.09-.65,1.65-.97Z"/>
            <path class="cls-3" d="M137.7,223.53c-11.44,4.71-22.82,6.19-31.45,10.1-.11-6.31-1.15-13.25-3.37-19.21,1.83-.42,3.55-.89,5.27-1.4,.58-.17,1.14-.36,1.7-.55,.3-.1,.59-.2,.88-.3,.58-.2,1.15-.4,1.74-.64,.3-.1,.61-.22,.91-.33,.59-.24,1.2-.48,1.81-.74,2.18-.93,4.51-2.01,7.15-3.37,1.51-.76,3.11-1.61,4.84-2.57,0,0,.01,.01,.01,0,.86-.47,1.75-.97,2.68-1.49h.01c.94-.52,1.9-1.06,2.9-1.64,1.01-.58,2.07-1.18,3.15-1.81,.54-.32,1.09-.63,1.65-.96l.12,24.91Z"/>
            <polygon class="cls-3" points="137.7 223.53 137.58 198.62 137.58 198.61 137.59 198.61 137.7 223.53"/>
            <g>
              <path class="cls-1" d="M82.89,244.52c2.84-1.33,6.16-2.91,9.94-4.68-3.17-.95-8.74,.44-9.94,4.68Z"/>
              <path class="cls-1" d="M57.25,215.4c-2.84,4.52,1.23,23.66,14.4,30,4.17-13.78-1.63-31.22-14.4-30Z"/>
              <path class="cls-1" d="M98.29,207.31c-3.78,3.13-6.43,8.59-6.69,13.72-.26-.98-.53-2.06-1.08-2.82-.33-.46-1.01,.02-.94,.57,.16,1.13,.73,2.24,1.05,3.32,.34,1.14,.61,2.31,.83,3.49,.45,2.4,.75,4.84,.76,7.33,0,.34,.46,.36,.49,0,.17-2.24,.17-4.48-.08-6.67,.9,3.29,2.91,6.31,5.09,8.49,1.86,1.86,4.76,4.37,7.61,3.04,2.87-1.34,3.14-5.32,1.93-7.78-1.34-2.74-3.89-4.77-6.45-5.96-1.77-.82-3.67-1.2-5.61-1.23,2.36-1.28,4.44-3.16,6.11-5.51,1.68-2.36,3.73-6.13,3-9.09-.33-1.35-1.29-2.35-2.6-2.41-1.21-.05-2.44,.68-3.43,1.5Zm-4.95,16.79s-.02-.03-.03-.04c2.45-.12,4.87,.32,7.05,1.36,2.23,1.07,4.44,2.79,5.69,5.13,.66,1.24,.97,2.79,.39,4.26-.55,1.39-1.74,2.07-3.01,1.92-2.54-.31-4.8-2.79-6.33-4.79-1.79-2.33-2.75-4.99-3.76-7.84Zm8.17-16.92c1.47,.08,1.79,1.9,1.53,3.28-.5,2.65-2.08,5.34-3.78,7.33-1.8,2.11-4.04,3.81-6.45,4.81-.04,.02-.07,.05-.11,.07,.12-2.57,.56-5.15,1.55-7.58,.98-2.4,2.46-4.62,4.28-6.36,.82-.78,1.9-1.61,2.98-1.55Z"/>
              <path class="cls-1" d="M86.69,220.38c1.62,4.46,1.71,9.75,.62,14.63-.09,.39-.68,.3-.61-.09,.41-2.37,.54-4.79,.39-7.15-.15-2.39-.66-4.61-1.32-6.83-.06-.21-.06-.52,.14-.68,.08-.06,.14-.11,.23-.14,.21-.06,.46,.04,.54,.26Z"/>
              <path class="cls-1" d="M80.73,220.5c2.09,4.26,3.16,9.35,3.42,14.32,.03,.58-.76,.84-.82,.24-.25-2.42-.67-4.82-1.25-7.13-.6-2.38-1.46-4.58-2.35-6.81-.28-.71,.68-1.29,1.01-.61Z"/>
              <path class="cls-1" d="M75.48,220.84c.05,0,.11,.02,.16,.03,.19,.03,.29,.24,.34,.42,.33,1.21,.79,2.37,1.1,3.59,.31,1.22,.57,2.47,.78,3.72,.41,2.48,.6,4.99,.55,7.56,0,.5-.78,.62-.8,.12-.1-2.48-.34-4.97-.76-7.38-.21-1.17-.46-2.32-.75-3.45-.32-1.25-.62-2.56-1.13-3.71-.08-.18-.06-.41,.05-.59,.03-.04,.05-.09,.08-.13,.09-.15,.23-.18,.37-.16Z"/>
            </g>
          </g>
          <path class="cls-8" d="M137.92,195.04c-.63,.19-29.97,15.53-29.97,15.53l8.47,21.44,28.46-6.06-6.96-30.91Z"/>
          <path class="cls-7" d="M108.53,210.36c3.52-2.07,7.23-3.76,11-5.33-.02-.49-.02-.98,0-1.47,.24-4.68,2.37-9.16,5.67-12.45,.31-.3,.78,.15,.48,.46-3.09,3.23-4.72,7.62-4.56,12.08,.07,1.96,.47,3.92,1.2,5.74,.35,.88,.77,1.73,1.25,2.54,.52,.89,1.34,1.7,1.69,2.67,.29,.82-.75,1.63-1.49,1.18-.94-.59-1.54-1.77-2.06-2.73-.54-.99-1-2.04-1.33-3.12-.33-1.05-.57-2.13-.71-3.22-3.41,1.61-6.7,3.47-9.93,5.4,1.94,5.89,4.22,11.67,6.75,17.33,4.08-1.93,8.77-3.05,13.28-2.82-.59-.65-1.12-1.36-1.55-2.13-.98-1.73-1.45-3.6-1.62-5.57-.03-.36,.58-.46,.64-.09,.31,1.75,1.18,3.42,2.27,4.82,.4,.51,.85,.97,1.33,1.42,.12-.05,.26-.08,.42-.08,11.37,.14,22.68-2.09,33.22-6.31,10.48-4.19,20.21-10.18,28.52-17.83,4.7-4.33,9.07-9.15,12.67-14.44,.28-.42,.98-.05,.7,.38-3.14,4.85-6.64,9.43-10.68,13.57-4.05,4.15-8.53,7.88-13.3,11.18-9.51,6.58-20.28,11.24-31.59,13.7-5.61,1.22-11.34,1.9-17.08,2,.25,.32,.32,.76,.11,1.15-.28,.5-.92,.68-1.42,.41-.41-.22-.81-.49-1.19-.79-.12,.25-.37,.45-.76,.44-2.44-.02-4.8,.09-7.2,.64-2.36,.53-4.62,1.37-6.76,2.49-.43,.22-1.11,.17-1.34-.33-2.87-6.28-5.16-12.78-6.96-19.44-.29-.46-.27-1.1,.32-1.45Z"/>
        </g>
      </g>
      <path class="cls-5" d="M78.65,111.62c4.68-.53,9.4,.32,14.09,.61,4.63,.28,9.26,.41,13.9,.39,9.31-.04,18.63-.69,27.87-1.82,5.25-.64,10.52-1.3,15.8-1.74,1.8-.15,1.7,2.42,.25,2.91-8.95,3.04-18.53,4.27-27.93,4.99-9.41,.72-18.87,.84-28.3,.34-2.57-.14-5.14-.32-7.7-.55-2.82-.25-5.47-.51-8.13-1.5-1.59-.59-1.87-3.4,.15-3.63Z"/>
      <path class="cls-5" d="M77.31,123.03c9.82,1.22,19.57,2.73,29.47,3.3,9.79,.57,19.61,.44,29.38-.13,5.62-.33,11.26-.47,16.85-1.2,1.65-.22,2.2,2.13,.53,2.46-4.87,.97-9.72,2.16-14.65,2.78-5.06,.64-10.15,1.04-15.26,1.21-10.06,.34-20.18,.01-30.19-1.14-5.72-.66-11.39-1.48-16.95-2.93-2.51-.65-1.81-4.67,.82-4.35Z"/>
      <path class="cls-9" d="M150.94,108.31c-.17,.43-.04,.83,.2,1.13,.01,.09,.01,.17,.02,.26,.27,3.79,.53,7.58,.84,11.37,.16,1.84,.31,3.7,.47,5.55,.14,1.72,.18,3.5,.7,5.16l2.36-.81c.09-1.45-.1-2.88-.23-4.34-.17-1.94-.34-3.88-.51-5.82-.32-3.7-.71-7.4-1.08-11.1-.02-.2-.04-.41-.06-.61,.63-.93,1.09-2.02,1.52-3.03,.48-1.16,.92-2.34,1.31-3.54,.78-2.42,1.32-4.93,1.66-7.46,.06-.49-.13-1.01-.68-1.14-.46-.12-1.06,.16-1.15,.66-.4,2.44-1.05,4.83-1.98,7.12-.35,.87-.77,1.72-1.2,2.55-.63-5.77-1.34-11.53-1.99-17.3-.09-.81-1.35-.86-1.31,0,.42,7.03,.75,14.08,1.23,21.11-.04,.09-.09,.16-.12,.25Z"/>
      <path class="cls-9" d="M71.82,100.23c.57,2.41,1.07,4.84,1.65,7.25,.29,1.19,.57,2.37,.87,3.55,.24,.99,.33,2.34,1.03,3.13-.24,2.32-.48,4.63-.76,6.94-.25,2.13-.68,4.28-.97,6.42l2.94,.77c.41-2.38,.57-4.86,.83-7.2,.34-3.2,.55-6.39,.61-9.61,.14-6.63,.07-13.18-.42-19.78-.06-.89-1.42-.91-1.39,0,.14,5.45,.07,10.98-.31,16.44-.12-.4-.24-.8-.36-1.2-.72-2.38-1.52-4.73-2.25-7.1-.29-.92-1.68-.56-1.46,.39Z"/>
      <path class="cls-9" d="M50.3,121.38l23.34,6.14,2.63,.69,1.14-7.11-25.21-8.74c-1.21,5.38-1.9,9.02-1.9,9.02Z"/>
      <g>
        <g>
          <rect class="cls-1" x="125.83" y="30.99" width="21.31" height="23.09" rx="6.97" ry="6.97" transform="translate(-6.17 33.19) rotate(-13.56)"/>
          <g>
            <path class="cls-4" d="M133.82,54.36c-2.9,0-5.4-1.97-6.08-4.79l-2.25-9.31c-.39-1.62-.13-3.31,.74-4.73,.87-1.43,2.25-2.43,3.87-2.82l2.63-.63c.48-.12,.98-.18,1.47-.18,2.9,0,5.4,1.97,6.08,4.79l2.24,9.31c.39,1.62,.13,3.31-.74,4.73-.87,1.43-2.25,2.43-3.87,2.82l-2.63,.63c-.48,.12-.98,.18-1.47,.18Z"/>
            <path class="cls-9" d="M134.21,32.4h0c2.67,0,4.97,1.81,5.59,4.41l2.25,9.31c.74,3.09-1.16,6.2-4.25,6.95l-2.63,.63c-.45,.11-.9,.16-1.36,.16-2.67,0-4.97-1.81-5.59-4.41l-2.25-9.31c-.36-1.5-.12-3.04,.68-4.35,.8-1.31,2.07-2.23,3.56-2.59l2.63-.63c.45-.11,.9-.16,1.36-.16m0-1c-.52,0-1.06,.06-1.59,.19l-2.63,.63c-3.63,.88-5.86,4.53-4.98,8.15l2.25,9.31c.75,3.1,3.51,5.17,6.56,5.17,.52,0,1.06-.06,1.59-.19l2.63-.63c3.63-.88,5.86-4.53,4.98-8.15l-2.24-9.31c-.75-3.1-3.51-5.18-6.56-5.18h0Z"/>
          </g>
        </g>
        <g>
          <path class="cls-8" d="M88.61,52.24c-5.08-5.65-8.18-14.56-8.18-14.56-2.81,.82-5.72-1.93-3.5-5.05-4.92-.1,2.84-16.04,13.06-12.68l8.25,29.33-9.64,2.96Z"/>
          <path class="cls-8" d="M129.93,13.72c8.65,10.8,7.49,25.58,7.49,25.58l-14.12-21.73,6.64-3.85Z"/>
          <path class="cls-3" d="M127.48,50.19l.24,10.02,.28,11.52,.29,6.03c.32,6.65-4.59,12.41-11.21,13.13h0c-6.67,.73-12.75-3.89-13.81-10.52l-5.68-35.26,29.89,5.08Z"/>
          <path class="cls-8" d="M127.78,58.08l.29,15.11c-12.77,1.28-21.53-7.97-23.85-14.92,5.49-1.85,23.57-.19,23.57-.19Z"/>
          <path class="cls-3" d="M91.11,49.37c-2.64-.27-5.58,.8-6.79,3.17-1,1.97-.62,4.38,.2,6.43,1.07,2.64,2.89,5.03,5.34,6.49,2.45,1.46,5.56,1.9,8.22,.88,2.66-1.02,4.75-3.59,4.9-6.44,.29-5.46-7.13-10.03-11.88-10.52Z"/>
          <path class="cls-8" d="M96.84,58.03c-2.57-1.78-5.28-1.68-8.18-.93-.43,.11-.33,.85,.12,.79,2.38-.31,5.14,1.06,6.84,2.3,.24,.18,.68,.19,.96,.11,.29-.08,.59-.31,.73-.58,.33-.65,.1-1.29-.48-1.69Z"/>
          <g>
            <path class="cls-3" d="M127.45,19.38c-2.62-2.09-5.89-3.02-9.36-3.08-8.87-.19-19.12,5.24-23.43,11.66-6.3,9.38-4.29,20.59,2,28.96,2.87,3.86,6.66,7.12,10.96,9.31,7.53,3.84,17.24,4.67,24.04-.34,4.92-3.61,7.57-9.77,7.94-15.87,.64-10.31-3.84-24-12.14-30.63Z"/>
            <path class="cls-8" d="M131.39,37.55c.55,1.17,.31,2.48-.52,2.92-.84,.44-1.96-.15-2.51-1.32-.55-1.17-.31-2.48,.52-2.92,.84-.44,1.96,.15,2.51,1.32Z"/>
            <path class="cls-8" d="M118.35,43.14c.55,1.17,.31,2.48-.52,2.92-.84,.44-1.96-.15-2.51-1.32-.55-1.17-.31-2.48,.52-2.92,.84-.44,1.96,.15,2.51,1.32Z"/>
            <path class="cls-8" d="M128.93,43.11c-2.13-2.49-4.38-4.84-6.65-7.19-.22-.23-.6,.06-.39,.31,1.69,2.06,3.39,4.08,5.18,6.06,.86,.96,1.95,1.94,2.41,3.17,.38,1.03-.04,2.05-.6,2.91-.15,.22,.02,.56,.31,.51,1-.19,1.55-1.3,1.51-2.24-.06-1.36-.91-2.53-1.76-3.52Z"/>
            <path class="cls-8" d="M132.06,25.13c-1.27-1.76-6.87,.5-7.15,2.66-.36,2.81,9.33,.36,7.15-2.66Z"/>
            <path class="cls-8" d="M112.27,33.93c-1.67-1.91-7.88,1.27-7.96,3.81-.15,4.42,10.02-1.48,7.96-3.81Z"/>
            <path class="cls-1" d="M121.31,53.22c.09-.59,5.13-1.03,5.7-.45,.36,.37-.53,2.54-2.69,2.67-1.78,.11-3.11-1.54-3.01-2.22Z"/>
          </g>
          <path class="cls-8" d="M97.14,27.96c4.99,7.83,6.12,25.66,.05,23.53-6.07-2.12-8.25-2.04-8.25-2.04-21.03-20.56-5.77-37.38,8.2-21.49Z"/>
          <path class="cls-8" d="M98.13,29.99c4.45-11.59,10.46-13.58,23.52-7.51,3.86,1.79,14.41,1.41,14.97-3,.37-2.9-3.08-3.8-3.08-3.8,6.77-1.99,3.83-8.22-1.44-5.31,8.75-7.41,1.91-13.44-3.67-8.66-4.3,3.68-7.71,5.24-13.81,3.64-9.07-2.39-24.61,1.67-25.85,16.67l9.37,7.98Z"/>
        </g>
        <g>
          <path class="cls-1" d="M108.15,49.36l29.01-7.27c5.7-1.44,9.08-7.49,7.56-13.52h0c-1.52-6.03-7.37-9.76-13.07-8.32l-29.01,7.27c-5.7,1.44-9.08,7.49-7.56,13.52h0c1.52,6.03,7.37,9.76,13.07,8.32Z"/>
          <path class="cls-9" d="M134.36,20.86c4.28,0,8.22,3.35,9.39,7.96,1.38,5.49-1.49,10.96-6.4,12.19l-22.26,5.57c-.66,.17-1.35,.25-2.03,.25-4.28,0-8.22-3.35-9.39-7.96-1.38-5.49,1.49-10.96,6.4-12.19l22.26-5.57c.66-.17,1.35-.25,2.03-.25m0-1c-.75,0-1.51,.09-2.27,.28l-22.26,5.57c-5.45,1.37-8.65,7.38-7.13,13.41,1.31,5.19,5.68,8.71,10.35,8.71,.75,0,1.51-.09,2.27-.28l22.26-5.57c5.45-1.37,8.65-7.38,7.13-13.41h0c-1.31-5.19-5.68-8.71-10.35-8.71h0Z"/>
          <path class="cls-4" d="M136.15,38.11l-9.26,2.32-3.09,.77-1.31,.34-5.41,1.35-.29,.08c-.4,.1-.81,.17-1.2,.2-3.42,.26-6.63-1.96-7.5-5.4-.97-3.84,1.36-7.74,5.2-8.71l9.81-2.45,5.4-1.35,1.32-.34,2.84-.71c.08-.02,.16-.04,.24-.05,.33-.08,.64-.13,.96-.15,3.42-.26,6.63,1.96,7.5,5.4,.97,3.84-1.36,7.73-5.2,8.7Z"/>
          <g>
            <polygon class="cls-1" points="129.06 23.98 122.14 42.75 115.91 44.3 122.83 25.54 129.06 23.98"/>
            <path class="cls-1" d="M134.14,22.72l-6.92,18.75-3.56,.89,6.93-18.77,3.27-.82c.09-.02,.19-.04,.28-.06Z"/>
          </g>
          <path class="cls-2" d="M134.37,32.9l-16.1,4.02c-.98,.25-1.98-.35-2.23-1.34h0c-.25-.98,.35-1.98,1.34-2.23l16.1-4.02c.98-.25,1.98,.35,2.23,1.34h0c.25,.98-.35,1.98-1.34,2.23Z"/>
        </g>
        <g>
          <rect class="cls-1" x="82.73" y="43.88" width="21.31" height="23.09" rx="6.97" ry="6.97" transform="translate(-12.67 32.08) rotate(-18.28)"/>
          <rect class="cls-4" x="85.99" y="49.13" width="9.96" height="14.18" rx="4.56" ry="4.56" transform="translate(194.99 81.08) rotate(161.72)"/>
          <path class="cls-9" d="M90.76,45.49h0c2.49,0,4.69,1.59,5.47,3.95l3,9.09c1,3.01-.65,6.28-3.66,7.27l-2.57,.85c-.59,.19-1.2,.29-1.81,.29-2.49,0-4.69-1.59-5.47-3.95l-3-9.09c-.48-1.46-.37-3.02,.32-4.39,.69-1.37,1.88-2.4,3.34-2.88l2.57-.85c.59-.19,1.2-.29,1.81-.29m0-1c-.7,0-1.42,.11-2.12,.34l-2.57,.85c-3.54,1.17-5.47,4.99-4.3,8.54l3,9.09c.94,2.84,3.58,4.64,6.42,4.64,.7,0,1.42-.11,2.12-.34l2.57-.85c3.54-1.17,5.47-4.99,4.3-8.54l-3-9.09c-.94-2.84-3.58-4.64-6.42-4.64h0Z"/>
        </g>
      </g>
    </g>
  </g>
</svg>