<?xml version="1.0" encoding="UTF-8"?>
<svg xmlns="http://www.w3.org/2000/svg" viewBox="0 0 3041.97 1594.32">
  <defs>
    <style>
      .cls-1 {
        fill: #fff;
      }

      .cls-2 {
        fill: #d3dfeb;
      }

      .cls-3 {
        fill: #e27761;
      }

      .cls-4 {
        isolation: isolate;
      }

      .cls-5 {
        fill: #756565;
      }

      .cls-6 {
        fill: #eef2f5;
      }

      .cls-7 {
        opacity: .35;
      }

      .cls-8 {
        fill: #e3e9ee;
      }

      .cls-9 {
        fill: #eebe80;
      }

      .cls-10 {
        fill: #716765;
      }

      .cls-11 {
        fill: #7da694;
      }

      .cls-12 {
        fill: #332b2a;
      }

      .cls-13 {
        fill: #f8e6c7;
      }

      .cls-14 {
        fill: #a6bfd5;
      }

      .cls-15 {
        opacity: .53;
      }

      .cls-16 {
        fill: #df675d;
      }

      .cls-17 {
        fill: #3c261d;
      }

      .cls-18 {
        fill: #4a413f;
      }

      .cls-19 {
        mix-blend-mode: multiply;
      }
    </style>
  </defs>
  <g class="cls-4">
    <g id="katman_2" data-name="katman 2">
      <g id="katman_1" data-name="katman 1">
        <g>
          <path class="cls-13" d="M2381.35,1265.72c-167.39-10.19-322.39-112.69-416.82-251.8-142.1-209.33-198.64-549.05-28.78-759.02,164.46-203.29,465.58-222.41,698.35-140.72,163.5,57.38,307,179.67,372.76,339.99,153.65,374.53-223.82,823.44-611.17,812.2-4.79-.14-9.58-.35-14.35-.65Z"/>
          <path class="cls-17" d="M2482.47,252.86c-13.91,0-25.23-8.38-25.23-18.67s11.32-18.67,25.23-18.67c3.07,0,6.11,.49,9.18,1.48l14.01-50.43h-64.31l-18.58,66.91,.16,.32-.08,.39c0,10.46-11.1,18.67-25.25,18.67s-25.23-8.38-25.23-18.67c0-12.36,16.58-22.44,33.71-17.4l24.69-91.32h106.78l-1.15,4.31-29.98,110.73-.53-.15c-3.42,7.42-12.65,12.51-23.44,12.51Zm0-30.51c-9.96,0-18.39,5.42-18.39,11.84s8.44,11.84,18.39,11.84c9,0,16.68-4.5,17.86-10.48l.72-3.58,.59,.15,27.01-99.82h-92.63l-25.28,93.56-3.6-1.47c-3.39-1.39-6.41-2.04-9.53-2.04-9.96,0-18.39,5.42-18.39,11.84s8.44,11.84,18.39,11.84,17.97-5.13,18.39-11.32l-.24-1.51,.19-.63,20.23-72.84h78.45l-18.45,66.54-3.63-1.61c-3.5-1.55-6.78-2.31-10.09-2.31Z"/>
          <path class="cls-2" d="M555.55,1517c-168.98-10.29-325.44-113.76-420.77-254.19C-8.66,1051.5-65.74,708.56,105.73,496.6c166.02-205.22,469.99-224.52,704.97-142.05,165.05,57.93,309.91,181.38,376.3,343.21,155.1,378.08-225.94,831.24-616.96,819.89-4.84-.14-9.67-.36-14.48-.65Z"/>
          <path class="cls-17" d="M472.39,1280.58c-2.64,0-4.86-2.08-4.97-4.76-.12-2.74,2.02-5.07,4.76-5.19,13.15-.56,26.32-1.77,39.13-3.57,3.13-.27,5.26,1.55,5.63,4.24,.37,2.72-1.52,5.25-4.24,5.63-13.13,1.83-26.62,3.07-40.1,3.65h-.21Zm-39.77-.1h-.25c-13.35-.68-26.81-2-40.06-3.92-2.72-.39-4.6-2.91-4.2-5.63,.39-2.7,2.64-4.64,5.63-4.2,12.92,1.86,26.09,3.15,39.13,3.81,2.74,.16,4.86,2.49,4.72,5.23-.14,2.66-2.33,4.72-4.97,4.72Zm118.45-10.86c-2.25,0-4.29-1.53-4.84-3.83-.64-2.66,1.01-5.34,3.69-5.98,12.74-3.03,25.43-6.7,37.73-10.92,2.56-.97,5.44,.51,6.31,3.09,.89,2.6-.49,5.42-3.09,6.31-12.59,4.31-25.61,8.08-38.66,11.19-.39,.1-.78,.14-1.15,.14Zm-197.09-.62c-.39,0-.8-.04-1.19-.14-13.09-3.22-26.07-7.09-38.56-11.44-2.6-.91-3.96-3.75-3.07-6.33,.91-2.6,3.83-3.92,6.33-3.07,12.2,4.27,24.89,8.02,37.67,11.17,2.66,.66,4.29,3.36,3.65,6.02-.56,2.27-2.6,3.79-4.84,3.79Zm272.27-25.14c-1.88,0-3.69-1.09-4.53-2.91-1.15-2.51-.02-5.46,2.47-6.59,11.89-5.38,23.64-11.42,34.97-17.93,2.41-1.36,5.44-.54,6.8,1.83,1.36,2.39,.54,5.44-1.83,6.8-11.62,6.66-23.66,12.84-35.82,18.36-.68,.31-1.36,.45-2.06,.45Zm-347.28-1.05c-.7,0-1.42-.16-2.08-.47-12.24-5.63-24.25-11.89-35.71-18.57-2.37-1.38-3.17-4.43-1.79-6.8,1.36-2.41,4.39-3.19,6.8-1.79,11.19,6.53,22.9,12.63,34.85,18.15,2.51,1.15,3.59,4.1,2.43,6.59-.84,1.83-2.62,2.89-4.51,2.89Zm416.19-38.49c-1.55,0-3.09-.74-4.06-2.1-1.59-2.23-1.05-5.34,1.19-6.94,10.61-7.52,21.04-15.66,30.97-24.21,2.08-1.81,5.21-1.55,7.01,.52,1.79,2.08,1.55,5.23-.52,7.01-10.16,8.76-20.85,17.1-31.71,24.79-.87,.62-1.88,.91-2.88,.91Zm-484.85-1.48c-1.01,0-2.02-.31-2.89-.93-10.94-7.85-21.54-16.26-31.55-24.98-2.08-1.81-2.29-4.95-.49-7.01,1.83-2.06,4.97-2.25,7.01-.49,9.77,8.51,20.15,16.73,30.81,24.4,2.23,1.61,2.74,4.72,1.15,6.94-.97,1.36-2.51,2.08-4.04,2.08Zm545.09-50.39c-1.24,0-2.49-.47-3.44-1.38-1.98-1.9-2.06-5.07-.16-7.03,9.11-9.46,17.8-19.43,25.84-29.61,1.73-2.16,4.88-2.49,6.99-.82,2.16,1.71,2.51,4.84,.82,6.99-8.26,10.43-17.15,20.63-26.46,30.31-.99,1.03-2.29,1.53-3.59,1.53Zm-605.03-1.83c-1.32,0-2.62-.52-3.61-1.55-9.19-9.69-18.05-19.93-26.29-30.46-1.69-2.18-1.3-5.28,.85-6.99,2.16-1.69,5.26-1.3,6.99,.85,8.04,10.28,16.67,20.28,25.66,29.76,1.88,1.98,1.81,5.13-.19,7.03-.95,.91-2.2,1.36-3.42,1.36Zm654.39-60.42c-.93,0-1.87-.25-2.7-.8-2.31-1.5-2.97-4.58-1.48-6.88,7.15-11.02,13.81-22.44,19.82-33.94,1.3-2.45,4.31-3.38,6.7-2.12,2.45,1.26,3.38,4.27,2.12,6.7-6.14,11.79-12.96,23.49-20.28,34.76-.95,1.48-2.55,2.27-4.18,2.27Zm-703.39-2.18c-1.63,0-3.24-.82-4.2-2.29-7.21-11.27-13.95-23-20.07-34.87-1.24-2.45-.29-5.44,2.16-6.7,2.37-1.24,5.4-.29,6.7,2.16,5.96,11.6,12.55,23.06,19.6,34.06,1.48,2.31,.8,5.38-1.52,6.88-.84,.52-1.77,.78-2.68,.78Zm740.14-68.31c-.62,0-1.26-.12-1.87-.37-2.55-1.03-3.77-3.92-2.74-6.47,4.88-12.08,9.25-24.56,12.98-37.07,.8-2.62,3.56-4.2,6.18-3.34,2.62,.78,4.14,3.54,3.34,6.18-3.81,12.8-8.28,25.59-13.29,37.96-.78,1.94-2.64,3.11-4.6,3.11Zm-776.43-2.37c-1.98,0-3.85-1.19-4.62-3.13-4.92-12.38-9.33-25.18-13.07-38.06-.76-2.64,.76-5.4,3.38-6.18,2.54-.8,5.4,.76,6.18,3.38,3.65,12.59,7.97,25.1,12.76,37.16,1.01,2.56-.23,5.46-2.78,6.47-.6,.23-1.22,.35-1.85,.35Zm799.05-73.77c-.31,0-.64-.04-.95-.1-2.7-.52-4.45-3.13-3.92-5.83,2.49-12.74,4.39-25.84,5.67-38.87,.27-2.72,2.31-4.74,5.44-4.47,2.74,.27,4.74,2.7,4.47,5.44-1.32,13.35-3.26,26.75-5.83,39.81-.47,2.37-2.55,4.02-4.88,4.02Zm-821.23-2.53c-2.35,0-4.43-1.67-4.9-4.04-2.47-13.07-4.35-26.48-5.58-39.86-.25-2.72,1.77-5.15,4.51-5.4,2.74-.37,5.15,1.77,5.4,4.51,1.2,13.06,3.03,26.13,5.46,38.89,.51,2.7-1.26,5.3-3.96,5.83-.31,.06-.62,.08-.93,.08Zm829.02-76.54c-2.74,0-4.97-2.23-4.97-4.97l.02-1.88c0-13.02-.62-26.23-1.85-39.09-.25-2.74,1.75-5.15,4.49-5.42,2.8-.41,5.15,1.75,5.42,4.49,1.24,13.17,1.88,26.69,1.88,40.2l-.02,1.71c0,2.74-2.23,4.97-4.97,4.97Zm-836.33-2.55h0c-2.76,0-4.97-2.23-4.97-4.97,.02-13.39,.68-26.91,1.96-40.21,.27-2.72,2.31-4.93,5.44-4.47,2.72,.27,4.72,2.7,4.47,5.44-1.26,12.98-1.9,26.19-1.92,39.24,0,2.76-2.23,4.97-4.97,4.97Zm828.89-78.25c-2.35,0-4.43-1.65-4.88-4.04-2.47-12.82-5.56-25.66-9.25-38.17-.76-2.62,.74-5.4,3.38-6.18,2.56-.76,5.4,.72,6.18,3.38,3.75,12.8,6.94,25.97,9.44,39.11,.52,2.7-1.24,5.3-3.94,5.81-.31,.08-.62,.1-.93,.1Zm-821.25-.85c-.31,0-.62-.02-.95-.1-2.68-.51-4.45-3.13-3.92-5.83,2.53-13.11,5.73-26.27,9.5-39.07,.78-2.64,3.52-4.16,6.18-3.38,2.64,.78,4.16,3.56,3.38,6.18-3.69,12.53-6.82,25.35-9.31,38.17-.45,2.37-2.54,4.02-4.88,4.02Zm798.91-75.4c-1.96,0-3.85-1.19-4.62-3.13-4.86-12.12-10.35-24.15-16.34-35.75-1.24-2.43-.29-5.44,2.16-6.7,2.37-1.24,5.42-.31,6.7,2.16,6.12,11.87,11.73,24.19,16.73,36.6,1.01,2.55-.23,5.44-2.78,6.47-.6,.23-1.22,.35-1.85,.35Zm-776.43-.8c-.62,0-1.26-.12-1.86-.37-2.54-1.03-3.77-3.92-2.74-6.47,5.05-12.51,10.7-24.81,16.8-36.56,1.26-2.45,4.27-3.4,6.7-2.12,2.43,1.26,3.38,4.25,2.12,6.7-5.94,11.46-11.46,23.49-16.42,35.71-.78,1.94-2.64,3.11-4.6,3.11Zm739.99-69.82c-1.63,0-3.22-.8-4.18-2.27-6.99-10.86-14.67-21.64-22.81-32.04-1.71-2.16-1.32-5.28,.84-6.97,2.18-1.71,5.28-1.32,6.97,.84,8.35,10.65,16.2,21.68,23.35,32.77,1.5,2.31,.82,5.4-1.48,6.88-.84,.54-1.77,.8-2.7,.8Zm-703.37-.72c-.93,0-1.86-.25-2.7-.8-2.31-1.48-2.97-4.57-1.48-6.88,7.23-11.19,15.1-22.21,23.41-32.74,1.75-2.18,4.88-2.49,6.99-.82,2.16,1.71,2.53,4.84,.82,6.99-8.12,10.26-15.81,21.02-22.87,31.96-.95,1.48-2.54,2.27-4.18,2.27Zm654.22-61.76c-1.32,0-2.62-.52-3.59-1.53-9.05-9.48-18.61-18.63-28.44-27.16-2.08-1.79-2.29-4.93-.49-7.01,1.79-2.08,4.93-2.27,7.01-.49,10.06,8.72,19.85,18.09,29.1,27.78,1.9,2,1.83,5.15-.16,7.03-.97,.93-2.2,1.38-3.44,1.38Zm-604.97-.6c-1.24,0-2.47-.47-3.44-1.38-1.98-1.9-2.06-5.05-.16-7.03,9.29-9.69,19.1-19.02,29.18-27.74,2.08-1.77,5.23-1.55,7.01,.52,1.79,2.08,1.55,5.21-.52,7.01-9.83,8.51-19.43,17.62-28.48,27.08-.97,1.03-2.29,1.53-3.59,1.53Zm544.96-51.48c-1.01,0-2.02-.29-2.89-.93-10.63-7.58-21.74-14.75-33.03-21.27-2.39-1.38-3.19-4.43-1.83-6.8,1.38-2.41,4.45-3.19,6.8-1.83,11.58,6.72,22.96,14.05,33.84,21.82,2.23,1.59,2.76,4.7,1.15,6.94-.97,1.36-2.49,2.08-4.04,2.08Zm-484.85-.49c-1.55,0-3.09-.72-4.06-2.1-1.59-2.23-1.07-5.34,1.19-6.94,10.84-7.71,22.24-15.04,33.86-21.74,2.33-1.34,5.38-.58,6.8,1.83,1.36,2.39,.54,5.42-1.83,6.8-11.35,6.55-22.48,13.68-33.08,21.23-.87,.62-1.86,.91-2.88,.91Zm416.1-39.36c-.7,0-1.4-.14-2.08-.45-11.85-5.44-24.13-10.37-36.45-14.65-2.6-.91-3.96-3.75-3.07-6.33,.91-2.6,3.71-3.89,6.33-3.07,12.63,4.39,25.18,9.44,37.34,15,2.49,1.15,3.59,4.1,2.45,6.61-.84,1.83-2.64,2.89-4.53,2.89Zm-347.26-.35c-1.88,0-3.69-1.09-4.53-2.91-1.15-2.51-.04-5.46,2.47-6.59,12.34-5.6,24.91-10.61,37.38-14.9,2.47-.95,5.44,.49,6.31,3.09,.89,2.58-.49,5.42-3.09,6.31-12.16,4.2-24.44,9.09-36.48,14.55-.66,.31-1.36,.45-2.06,.45Zm272.22-25.68c-.39,0-.78-.04-1.17-.14-12.76-3.11-25.74-5.6-38.58-7.44-2.72-.39-4.6-2.89-4.22-5.61,.37-2.72,2.97-4.7,5.61-4.22,13.17,1.86,26.46,4.43,39.52,7.6,2.68,.66,4.31,3.34,3.67,6-.56,2.27-2.58,3.81-4.84,3.81Zm-197.07-.19c-2.25,0-4.29-1.53-4.84-3.81-.64-2.66,.99-5.36,3.67-6,12.92-3.11,26.21-5.65,39.52-7.52,2.66-.47,5.23,1.5,5.61,4.22,.39,2.72-1.5,5.25-4.22,5.61-13,1.85-25.97,4.31-38.58,7.36-.39,.1-.78,.14-1.17,.14Zm118.43-11.07h-.25c-13.04-.64-26.27-.64-39.3-.06-2.45,.04-5.09-2-5.21-4.74-.12-2.76,2-5.07,4.74-5.21,13.33-.6,26.91-.6,40.27,.06,2.74,.14,4.86,2.47,4.72,5.23-.14,2.64-2.33,4.72-4.97,4.72Z"/>
          <path class="cls-17" d="M2460.43,748.39c-2.64,0-4.84-2.06-4.97-4.72-.14-2.74,1.98-5.09,4.72-5.23,12.84-.64,25.8-1.98,38.54-4.02,2.62-.35,5.26,1.44,5.69,4.14s-1.42,5.26-4.14,5.69c-13.09,2.08-26.4,3.48-39.59,4.14h-.25Zm-39.28-.12h-.29c-13.23-.76-26.54-2.25-39.57-4.39-2.7-.45-4.55-3.01-4.1-5.73,.45-2.7,3.05-4.49,5.73-4.1,12.67,2.1,25.62,3.54,38.52,4.27,2.74,.17,4.84,2.53,4.68,5.26-.16,2.64-2.35,4.68-4.97,4.68Zm116.78-12.26c-2.2,0-4.2-1.46-4.8-3.67-.72-2.64,.84-5.38,3.5-6.1,12.32-3.36,24.69-7.48,36.78-12.24,2.6-.97,5.46,.23,6.45,2.8,1.01,2.56-.25,5.44-2.8,6.45-12.41,4.9-25.14,9.13-37.83,12.59-.43,.12-.87,.17-1.3,.17Zm-194.18-.58c-.45,0-.89-.06-1.34-.17-12.71-3.56-25.39-7.89-37.71-12.82-2.56-1.03-3.79-3.92-2.78-6.47,1.05-2.55,3.96-3.73,6.47-2.78,12.01,4.82,24.34,9.01,36.7,12.47,2.64,.76,4.2,3.5,3.46,6.14-.62,2.2-2.62,3.63-4.8,3.63Zm267.17-28.23c-1.79,0-3.52-.97-4.41-2.66-1.26-2.43-.33-5.44,2.1-6.72,11.36-5.96,22.56-12.67,33.26-19.89,2.25-1.55,5.36-.97,6.9,1.34,1.53,2.27,.93,5.36-1.34,6.9-11,7.44-22.5,14.32-34.19,20.48-.74,.39-1.53,.56-2.31,.56Zm-339.96-1.05c-.8,0-1.59-.19-2.35-.58-11.68-6.24-23.12-13.19-34.04-20.65-2.27-1.53-2.86-4.64-1.3-6.9,1.53-2.27,4.64-2.89,6.9-1.3,10.63,7.25,21.78,14.01,33.14,20.07,2.41,1.3,3.32,4.31,2.04,6.74-.89,1.67-2.62,2.62-4.39,2.62Zm405.02-42.84c-1.42,0-2.82-.6-3.81-1.77-1.77-2.1-1.5-5.25,.6-7.01,9.85-8.3,19.33-17.23,28.23-26.56,1.87-1.94,5.01-2.1,7.03-.16,1.98,1.88,2.06,5.03,.16,7.03-9.13,9.58-18.88,18.77-29,27.3-.93,.78-2.08,1.17-3.21,1.17Zm-469.81-1.38c-1.15,0-2.29-.39-3.23-1.19-10.02-8.57-19.74-17.81-28.85-27.47-1.88-2-1.79-5.15,.19-7.03,2.02-1.9,5.17-1.79,7.03,.19,8.88,9.42,18.32,18.42,28.07,26.73,2.1,1.79,2.33,4.93,.56,7.01-.99,1.17-2.39,1.75-3.79,1.75Zm523.99-55.41c-1.07,0-2.12-.33-3.03-1.03-2.18-1.67-2.58-4.8-.91-6.97,7.81-10.18,15.17-20.92,21.88-31.98,1.42-2.37,4.49-3.09,6.84-1.67,2.35,1.44,3.09,4.49,1.67,6.84-6.9,11.35-14.47,22.4-22.5,32.87-.97,1.28-2.45,1.94-3.94,1.94Zm-577.83-1.69c-1.5,0-2.99-.68-3.96-1.96-7.98-10.55-15.5-21.66-22.32-33.01-1.4-2.37-.64-5.42,1.71-6.84,2.39-1.38,5.42-.66,6.84,1.71,6.62,11.05,13.93,21.86,21.7,32.11,1.65,2.2,1.22,5.32-.95,6.97-.91,.68-1.96,1.01-3.01,1.01Zm618.57-65.33c-.72,0-1.44-.16-2.12-.47-2.49-1.17-3.56-4.14-2.39-6.62,5.48-11.66,10.35-23.74,14.51-35.94,.87-2.58,3.69-4.04,6.31-3.09,2.58,.87,3.98,3.71,3.09,6.31-4.27,12.53-9.29,24.96-14.9,36.95-.85,1.81-2.64,2.86-4.51,2.86Zm-658.94-1.96c-1.88,0-3.67-1.07-4.53-2.89-5.52-12.01-10.45-24.48-14.67-37.05-.87-2.6,.54-5.42,3.15-6.29,2.64-.85,5.42,.54,6.29,3.15,4.08,12.22,8.88,24.36,14.28,36.04,1.15,2.49,.06,5.44-2.45,6.61-.68,.29-1.38,.45-2.08,.45Zm684.27-72.29c-.35,0-.72-.04-1.09-.12-2.68-.6-4.37-3.26-3.77-5.94,2.82-12.61,4.97-25.45,6.39-38.21,.27-2.72,2.76-5.03,5.48-4.39,2.74,.29,4.7,2.76,4.39,5.48-1.44,13.11-3.65,26.34-6.55,39.3-.52,2.31-2.58,3.89-4.86,3.89Zm-709.16-2.18c-2.29,0-4.35-1.59-4.86-3.92-2.82-13.06-4.93-26.29-6.31-39.32-.27-2.74,1.71-5.19,4.43-5.48,2.74-.27,5.21,1.71,5.48,4.43,1.32,12.71,3.38,25.57,6.12,38.27,.58,2.68-1.13,5.32-3.81,5.91-.35,.08-.7,.12-1.05,.12Zm717.88-75.81c-2.74,0-4.97-2.23-4.97-4.97v-1.48c0-12.84-.7-25.88-2.08-38.7-.29-2.72,1.69-5.17,4.43-5.48,2.7-.37,5.17,1.69,5.48,4.43,1.4,13.17,2.12,26.54,2.12,39.75v1.48c0,2.74-2.23,4.97-4.97,4.97Zm-726.12-2.21h0c-2.76,0-4.97-2.23-4.97-4.97,.02-13.27,.76-26.65,2.21-39.77,.29-2.72,2.68-5.09,5.48-4.39,2.74,.29,4.7,2.74,4.39,5.48-1.4,12.76-2.12,25.78-2.14,38.68,0,2.76-2.23,4.97-4.97,4.97Zm717.71-77.26c-2.29,0-4.35-1.59-4.86-3.9-2.74-12.59-6.24-25.14-10.35-37.34-.87-2.6,.52-5.42,3.13-6.31,2.62-.85,5.44,.54,6.31,3.13,4.24,12.55,7.81,25.47,10.63,38.39,.58,2.7-1.11,5.34-3.79,5.93-.37,.08-.72,.12-1.07,.12Zm-709.16-.72c-.35,0-.72-.04-1.07-.12-2.68-.58-4.37-3.24-3.79-5.93,2.84-12.88,6.43-25.78,10.7-38.37,.89-2.6,3.71-4.04,6.29-3.11,2.6,.87,4,3.69,3.11,6.29-4.14,12.24-7.64,24.81-10.39,37.32-.51,2.33-2.56,3.9-4.86,3.9Zm684.13-73.69c-1.86,0-3.67-1.07-4.51-2.88-5.4-11.66-11.52-23.18-18.18-34.25-1.42-2.35-.66-5.42,1.69-6.82,2.31-1.44,5.4-.68,6.82,1.69,6.86,11.38,13.13,23.22,18.69,35.18,1.17,2.49,.08,5.46-2.41,6.61-.68,.31-1.4,.47-2.1,.47Zm-658.96-.62c-.7,0-1.42-.16-2.1-.47-2.49-1.17-3.57-4.12-2.41-6.61,5.58-11.97,11.89-23.8,18.75-35.14,1.42-2.33,4.49-3.09,6.84-1.67s3.09,4.49,1.67,6.84c-6.68,11.03-12.82,22.54-18.24,34.17-.84,1.81-2.64,2.88-4.51,2.88Zm618.45-66.6c-1.5,0-2.97-.68-3.96-1.96-7.85-10.3-16.28-20.24-25.1-29.55-1.88-2-1.81-5.15,.19-7.03,1.98-1.9,5.17-1.77,7.03,.19,9.05,9.56,17.74,19.78,25.8,30.36,1.65,2.18,1.24,5.3-.95,6.97-.89,.68-1.96,1.01-3.01,1.01Zm-577.85-.52c-1.07,0-2.12-.33-3.03-1.03-2.18-1.67-2.58-4.8-.91-6.97,8.1-10.57,16.8-20.75,25.84-30.29,1.9-1.98,5.05-2.1,7.03-.19,2,1.9,2.08,5.05,.19,7.03-8.82,9.29-17.29,19.21-25.18,29.51-.97,1.28-2.45,1.94-3.94,1.94Zm523.9-56.46c-1.15,0-2.29-.39-3.22-1.19-9.77-8.33-20.15-16.22-30.83-23.49-2.27-1.55-2.86-4.64-1.32-6.92,1.55-2.29,4.64-2.86,6.92-1.32,10.98,7.48,21.64,15.6,31.69,24.15,2.1,1.79,2.35,4.92,.56,7.01-.99,1.15-2.39,1.75-3.79,1.75Zm-469.83-.41c-1.4,0-2.8-.6-3.79-1.75-1.79-2.1-1.53-5.23,.56-7.01,10.01-8.51,20.67-16.61,31.72-24.11,2.25-1.53,5.36-.95,6.92,1.32,1.53,2.27,.95,5.38-1.32,6.92-10.76,7.29-21.16,15.17-30.87,23.45-.93,.8-2.08,1.18-3.22,1.18Zm404.96-43.71c-.8,0-1.59-.19-2.33-.58-11.44-6.1-23.27-11.58-35.16-16.32-2.55-1.03-3.79-3.9-2.78-6.47,1.03-2.54,4-3.75,6.47-2.78,12.22,4.88,24.38,10.53,36.13,16.79,2.43,1.3,3.34,4.31,2.06,6.72-.89,1.69-2.62,2.64-4.39,2.64Zm-340-.31c-1.77,0-3.5-.95-4.39-2.64-1.28-2.43-.37-5.44,2.06-6.72,11.6-6.18,23.78-11.81,36.19-16.73,2.56-.99,5.42,.23,6.45,2.8,1.01,2.54-.23,5.44-2.8,6.45-12.04,4.78-23.9,10.26-35.18,16.26-.74,.39-1.53,.58-2.33,.58Zm267.13-28.81c-.45,0-.89-.06-1.32-.17-12.45-3.46-25.2-6.28-37.84-8.33-2.72-.45-4.55-3.01-4.12-5.71,.45-2.7,2.89-4.49,5.71-4.12,13.02,2.14,26.11,5.03,38.89,8.57,2.66,.74,4.2,3.48,3.48,6.12-.62,2.21-2.62,3.65-4.8,3.65Zm-194.16-.19c-2.18,0-4.2-1.44-4.8-3.65-.72-2.64,.84-5.38,3.48-6.12,12.76-3.52,25.86-6.37,38.91-8.47,2.91-.33,5.28,1.42,5.71,4.12,.43,2.72-1.42,5.26-4.12,5.71-12.71,2.04-25.45,4.82-37.86,8.24-.45,.12-.89,.17-1.32,.17Zm116.72-12.45h-.27c-12.86-.74-25.9-.74-38.76-.06-2.56-.02-5.09-1.98-5.23-4.72-.14-2.74,1.98-5.07,4.72-5.23,13.17-.68,26.63-.66,39.81,.06,2.74,.16,4.84,2.51,4.7,5.25-.16,2.66-2.35,4.7-4.97,4.7Z"/>
          <path class="cls-17" d="M227.82,965.48c-.39,0-.8-.1-1.17-.28l-24.98-13.14-24.98,13.14c-.87,.43-1.88,.36-2.62-.19-.78-.55-1.15-1.5-.99-2.43l4.76-27.83-20.2-19.71c-.68-.66-.93-1.64-.64-2.54,.29-.9,1.07-1.55,2.02-1.69l27.94-4.06,12.49-25.31c.85-1.71,3.61-1.71,4.47,0l12.49,25.31,27.94,4.06c.95,.14,1.73,.79,2.02,1.69,.29,.9,.04,1.88-.64,2.54l-20.2,19.71,4.76,27.83c.16,.93-.21,1.87-.99,2.43-.43,.32-.93,.48-1.46,.48Zm-26.15-18.72c.39,0,.8,.1,1.17,.28l21.68,11.4-4.14-24.15c-.14-.81,.12-1.63,.72-2.2l17.54-17.11-24.25-3.53c-.82-.12-1.52-.62-1.88-1.36l-10.84-21.97-10.84,21.97c-.37,.74-1.07,1.24-1.88,1.36l-24.25,3.53,17.54,17.11c.6,.56,.85,1.39,.72,2.2l-4.14,24.15,21.68-11.4c.37-.18,.78-.28,1.17-.28Z"/>
          <path class="cls-17" d="M2877.47,673.25c-.29,0-.6-.07-.87-.21l-18.74-9.86-18.74,9.86c-.66,.32-1.41,.27-1.97-.15-.58-.42-.86-1.12-.74-1.82l3.57-20.88-15.16-14.79c-.51-.5-.7-1.23-.48-1.91,.22-.68,.8-1.17,1.52-1.27l20.96-3.05,9.37-18.99c.64-1.28,2.71-1.28,3.35,0l9.37,18.99,20.96,3.05c.71,.1,1.3,.59,1.52,1.27,.22,.68,.03,1.41-.48,1.91l-15.16,14.79,3.57,20.88c.12,.7-.16,1.41-.74,1.82-.32,.24-.7,.36-1.09,.36Zm-19.62-14.04c.29,0,.6,.07,.87,.21l16.27,8.56-3.1-18.12c-.1-.6,.09-1.22,.54-1.65l13.16-12.83-18.19-2.65c-.61-.09-1.14-.47-1.41-1.02l-8.13-16.48-8.13,16.48c-.28,.55-.8,.93-1.41,1.02l-18.19,2.65,13.16,12.83c.45,.42,.64,1.04,.54,1.65l-3.1,18.12,16.27-8.56c.28-.14,.58-.21,.87-.21Z"/>
          <g>
            <path class="cls-17" d="M2705.92,368.68h-45.28c-.87,0-1.57-.7-1.57-1.57v-45.28c0-.87,.7-1.57,1.57-1.57h45.28c.87,0,1.57,.7,1.57,1.57v45.28c0,.87-.7,1.57-1.57,1.57Zm-43.7-3.15h42.13v-42.13h-42.13v42.13Z"/>
            <path class="cls-17" d="M2680,358.61c-.43,0-.85-.18-1.15-.5l-12.38-13.16c-.6-.63-.57-1.63,.07-2.23,.63-.6,1.63-.57,2.23,.07l11.1,11.8,20.16-26.76c.53-.7,1.52-.83,2.21-.31,.7,.52,.83,1.51,.31,2.21l-21.28,28.25c-.28,.37-.71,.6-1.17,.62h-.09Z"/>
          </g>
          <g>
            <path class="cls-17" d="M1170.53,1439.42h-56.7c-1.09,0-1.97-.88-1.97-1.97v-56.7c0-1.09,.88-1.97,1.97-1.97h56.7c1.09,0,1.97,.88,1.97,1.97v56.7c0,1.09-.88,1.97-1.97,1.97Zm-54.73-3.94h52.76v-52.76h-52.76v52.76Z"/>
            <path class="cls-17" d="M1138.06,1426.82c-.54,0-1.06-.22-1.44-.62l-15.51-16.48c-.75-.79-.71-2.04,.08-2.79s2.04-.71,2.79,.08l13.91,14.78,25.24-33.51c.67-.87,1.9-1.04,2.76-.39,.87,.65,1.04,1.89,.39,2.76l-26.65,35.38c-.35,.47-.89,.75-1.47,.78h-.11Z"/>
          </g>
          <g>
            <path class="cls-17" d="M466.36,363.94h-56.7c-1.09,0-1.97-.88-1.97-1.97v-56.7c0-1.09,.88-1.97,1.97-1.97h56.7c1.09,0,1.97,.88,1.97,1.97v56.7c0,1.09-.88,1.97-1.97,1.97Zm-54.73-3.94h52.76v-52.76h-52.76v52.76Z"/>
            <path class="cls-17" d="M433.9,351.34c-.54,0-1.06-.22-1.44-.62l-15.51-16.48c-.75-.79-.71-2.04,.08-2.79,.79-.75,2.04-.71,2.79,.08l13.91,14.78,25.24-33.51c.67-.87,1.9-1.04,2.76-.39,.87,.65,1.04,1.89,.39,2.76l-26.65,35.38c-.35,.47-.89,.75-1.47,.78h-.11Z"/>
          </g>
          <path class="cls-17" d="M1125.88,167.23c-.47,0-.91-.19-1.23-.53-5.35-5.68-10.45-10.94-15.18-15.83-19.87-20.51-33-34.06-33.25-45.82-.15-7.15,2.49-13.92,7.44-19.08,4.94-5.16,11.6-8.08,18.75-8.23h.56c8.48,0,16.26,3.97,21.31,10.75,4.86-7.07,12.83-11.47,21.4-11.65h.56c14.44,0,26.44,11.75,26.74,26.19,.26,12.79-16.13,30.85-36.87,53.71-2.92,3.21-5.92,6.52-8.98,9.92-.31,.35-.76,.56-1.24,.56h-.02Zm-22.9-86.1h-.5c-6.24,.14-12.05,2.69-16.37,7.19s-6.62,10.42-6.5,16.66c.21,10.44,13.67,24.32,32.29,43.54,4.37,4.51,9.05,9.34,13.95,14.52,2.64-2.93,5.23-5.78,7.76-8.57,20.24-22.31,36.23-39.92,35.99-51.36-.26-12.62-10.74-22.88-23.35-22.88h-.5c-8.25,.18-15.89,4.85-19.93,12.21-.29,.53-.84,.87-1.45,.88h-.02c-.61,0-1.16-.31-1.46-.82-4.3-7.12-11.74-11.37-19.92-11.37Z"/>
          <path class="cls-1" d="M2443.02,452.18c-5.32,49.52-31.03,89.16-64.35,100.28,33.32,11.12,59.03,50.76,64.35,100.28,5.32-49.52,31.03-89.16,64.35-100.28-33.32-11.12-59.03-50.76-64.35-100.28Z"/>
          <path class="cls-1" d="M2520.93,322.87c-4.36,40.59-25.43,73.08-52.74,82.19,27.31,9.11,48.38,41.6,52.74,82.19,4.36-40.59,25.43-73.08,52.74-82.19-27.31-9.11-48.38-41.6-52.74-82.19Z"/>
          <g>
            <rect class="cls-18" x="1336.14" y="1287.05" width="367.74" height="242.76"/>
            <rect class="cls-10" x="719.25" y="223.03" width="1601.52" height="1090.69" rx="1.1" ry="1.1"/>
            <rect class="cls-1" x="740.21" y="262.24" width="1557.67" height="977.35"/>
            <rect class="cls-14" x="740.21" y="261.46" width="1557.67" height="63.22"/>
            <ellipse class="cls-16" cx="786.67" cy="292.22" rx="16.67" ry="15.82"/>
            <ellipse class="cls-9" cx="842.24" cy="292.22" rx="16.67" ry="15.82"/>
            <ellipse class="cls-11" cx="900.59" cy="292.22" rx="16.67" ry="15.82"/>
            <path class="cls-10" d="M1210.58,1491.35h618.87c1.67,0,3.02,1.35,3.02,3.02v66.68h-624.92v-66.68c0-1.67,1.35-3.02,3.02-3.02Z"/>
          </g>
          <g>
            <circle class="cls-14" cx="1521.81" cy="159.89" r="22.77" transform="translate(-6.06 244.09) rotate(-9.15)"/>
            <path class="cls-14" d="M1579.34,126.33c-1.46,0-2.95-.34-4.35-1.05-55.75-28.39-102.89-.62-103.35-.34-4.56,2.72-10.44,1.27-13.17-3.24-2.74-4.53-1.29-10.43,3.24-13.17,2.29-1.39,56.88-33.53,121.99-.34,4.72,2.41,6.59,8.18,4.19,12.89-1.69,3.32-5.06,5.23-8.55,5.23Z"/>
            <path class="cls-14" d="M1606.91,88.97c-1.46,0-2.95-.34-4.35-1.05-84.95-43.3-155.55-2.1-158.51-.33-4.55,2.72-10.42,1.26-13.15-3.28-2.73-4.52-1.28-10.4,3.24-13.14,3.32-2.01,82.39-48.65,177.13-.34,4.72,2.41,6.59,8.18,4.19,12.89-1.69,3.32-5.06,5.23-8.55,5.23Z"/>
            <path class="cls-14" d="M1634.48,46.81c-1.46,0-2.95-.34-4.35-1.05-114.9-58.57-212.67-.92-213.63-.34-4.56,2.72-10.44,1.28-13.17-3.24-2.74-4.53-1.29-10.43,3.24-13.17,4.34-2.64,107.97-63.72,232.26-.34,4.72,2.41,6.59,8.18,4.19,12.89-1.69,3.32-5.06,5.23-8.55,5.23Z"/>
          </g>
          <g>
            <rect class="cls-8" x="795.7" y="385.79" width="1427.37" height="785.8"/>
            <rect class="cls-14" x="845.43" y="420.6" width="994.68" height="586.86"/>
            <rect class="cls-10" x="845.43" y="954.41" width="994.68" height="51.39"/>
            <g>
              <g class="cls-7">
                <rect class="cls-10" x="1026.87" y="519.3" width="580.53" height="365.07" rx="18.29" ry="18.29"/>
              </g>
              <rect class="cls-3" x="1047.07" y="496.86" width="580.53" height="365.07" rx="53.05" ry="53.05"/>
              <polygon class="cls-1" points="1264.02 805.08 1264.02 544.74 1455.53 679.4 1264.02 805.08"/>
            </g>
            <path class="cls-3" d="M871.95,975.96c-2.74,0-4.97,2.22-4.97,4.97s2.23,4.97,4.97,4.97h381.3v-9.95h-381.3Z"/>
            <path class="cls-8" d="M1788.73,975.96h-535.48v9.95h535.48c2.74,0,4.97-2.22,4.97-4.97s-2.23-4.97-4.97-4.97Z"/>
            <circle class="cls-1" cx="1258.79" cy="982.96" r="34.4"/>
            <circle class="cls-14" cx="1258.79" cy="982.96" r="17.3"/>
            <circle class="cls-14" cx="914.23" cy="1091.18" r="45.59" transform="translate(-226.25 239.24) rotate(-13.28)"/>
            <path class="cls-14" d="M1239.98,1071.29h-247c-4.12,0-7.46-3.34-7.46-7.46s3.34-7.46,7.46-7.46h247c4.12,0,7.46,3.34,7.46,7.46s-3.34,7.46-7.46,7.46Z"/>
            <path class="cls-14" d="M1308.79,1122.68h-318.3c-4.12,0-7.46-3.34-7.46-7.46s3.34-7.46,7.46-7.46h318.3c4.12,0,7.46,3.34,7.46,7.46s-3.34,7.46-7.46,7.46Z"/>
            <path class="cls-14" d="M1599.74,1123.51h-237.07c-4.12,0-7.46-3.34-7.46-7.46s3.34-7.46,7.46-7.46h237.07c4.12,0,7.46,3.34,7.46,7.46s-3.34,7.46-7.46,7.46Z"/>
            <path class="cls-14" d="M1400.8,1072.94h-109.41c-4.12,0-7.46-3.34-7.46-7.46s3.34-7.46,7.46-7.46h109.41c4.12,0,7.46,3.34,7.46,7.46s-3.34,7.46-7.46,7.46Z"/>
            <rect class="cls-14" x="1878.24" y="433.86" width="288.46" height="172.41"/>
            <polygon class="cls-8" points="1999.66 579.18 1999.66 471.14 2079.13 527.02 1999.66 579.18"/>
            <rect class="cls-14" x="1878.24" y="659.32" width="288.46" height="172.41"/>
            <polygon class="cls-8" points="1999.66 804.64 1999.66 696.6 2079.13 752.48 1999.66 804.64"/>
            <rect class="cls-14" x="1878.24" y="884.79" width="288.46" height="172.41"/>
            <polygon class="cls-8" points="1999.66 1030.1 1999.66 922.06 2079.13 977.94 1999.66 1030.1"/>
          </g>
          <g>
            <g class="cls-7">
              <path class="cls-10" d="M2167.14,46.96h-335.9c-16.25,0-29.42,13.17-29.42,29.42v181.68c0,16.25,13.17,29.42,29.42,29.42h79.72l81.51,128.41,73.19-128.41h101.48c16.25,0,29.42-13.17,29.42-29.42V76.38c0-16.25-13.17-29.42-29.42-29.42Z"/>
            </g>
            <path class="cls-3" d="M2185.77,31.72h-335.9c-16.25,0-29.42,13.17-29.42,29.42V242.81c0,16.25,13.17,29.42,29.42,29.42h79.72l81.51,128.41,73.19-128.41h101.48c16.25,0,29.42-13.17,29.42-29.42V61.14c0-16.25-13.17-29.42-29.42-29.42Z"/>
            <path class="cls-1" d="M1943.49,93.69c-12.26,.25-22.71,7.23-28.21,17.27-5.91-9.8-16.63-16.34-28.9-16.08-18.26,.38-32.76,15.49-32.38,33.75,.38,18.26,27.56,41.9,63.3,79.88,32.33-36,60.31-64.17,59.94-82.43-.38-18.26-15.49-32.76-33.75-32.38Z"/>
            <g>
              <path class="cls-1" d="M2024.73,181.48h-14.7v-54.74h-7.74v-14.63h22.45v69.37Z"/>
              <path class="cls-1" d="M2048.18,171.87c-5.45-6.87-8.17-15.06-8.17-24.58s2.72-17.76,8.17-24.65c5.56-6.98,12.31-10.49,20.24-10.49s14.73,3.5,20.29,10.49c5.45,6.89,8.17,15.11,8.17,24.65s-2.72,17.71-8.17,24.58c-5.56,6.98-12.34,10.49-20.29,10.49s-14.68-3.5-20.24-10.49Zm10.75-39.4c-2.86,4.05-4.29,9-4.29,14.82s1.42,10.7,4.29,14.77c2.68,3.76,5.85,5.66,9.49,5.66s6.87-1.89,9.54-5.66c2.84-4.07,4.29-9,4.29-14.77s-1.44-10.77-4.29-14.82c-2.68-3.79-5.87-5.66-9.54-5.66s-6.82,1.87-9.49,5.66Z"/>
              <path class="cls-1" d="M2117.12,171.87c-5.45-6.87-8.17-15.06-8.17-24.58s2.72-17.76,8.17-24.65c5.56-6.98,12.31-10.49,20.24-10.49s14.73,3.5,20.29,10.49c5.45,6.89,8.17,15.11,8.17,24.65s-2.72,17.71-8.17,24.58c-5.56,6.98-12.34,10.49-20.29,10.49s-14.68-3.5-20.24-10.49Zm10.75-39.4c-2.86,4.05-4.29,9-4.29,14.82s1.42,10.7,4.29,14.77c2.68,3.76,5.85,5.66,9.49,5.66s6.87-1.89,9.54-5.66c2.84-4.07,4.29-9,4.29-14.77s-1.44-10.77-4.29-14.82c-2.68-3.79-5.87-5.66-9.54-5.66s-6.82,1.87-9.49,5.66Z"/>
            </g>
          </g>
          <path class="cls-11" d="M2934.26,1594.32H178.99c-11,0-19.89-8.9-19.89-19.89s8.9-19.89,19.89-19.89H2934.26c11,0,19.89,8.9,19.89,19.89s-8.9,19.89-19.89,19.89Z"/>
          <g>
            <path class="cls-17" d="M668.2,220.34h-183.4c-.64,0-1.16-.52-1.16-1.16V93.83c0-.64,.52-1.16,1.16-1.16h183.4c.64,0,1.16,.52,1.16,1.16v125.35c0,.64-.52,1.16-1.16,1.16Zm-182.23-2.32h181.07V94.99h-181.07v123.02Zm175.78-6.69h-13.88c-.64,0-1.16-.52-1.16-1.16v-13.87c0-.64,.52-1.16,1.16-1.16h13.88c.64,0,1.16,.52,1.16,1.16v13.87c0,.64-.52,1.16-1.16,1.16Zm-12.72-2.32h11.56v-11.55h-11.56v11.55Zm-142.61,2.32h-13.88c-.64,0-1.16-.52-1.16-1.16v-13.87c0-.64,.52-1.16,1.16-1.16h13.88c.64,0,1.16,.52,1.16,1.16v13.87c0,.64-.52,1.16-1.16,1.16Zm-12.72-2.32h11.56v-11.55h-11.56v11.55Zm168.04-21.28h-13.88c-.64,0-1.16-.52-1.16-1.16v-13.87c0-.64,.52-1.16,1.16-1.16h13.88c.64,0,1.16,.52,1.16,1.16v13.87c0,.64-.52,1.16-1.16,1.16Zm-12.72-2.32h11.56v-11.55h-11.56v11.55Zm-142.61,2.32h-13.88c-.64,0-1.16-.52-1.16-1.16v-13.87c0-.64,.52-1.16,1.16-1.16h13.88c.64,0,1.16,.52,1.16,1.16v13.87c0,.64-.52,1.16-1.16,1.16Zm-12.72-2.32h11.56v-11.55h-11.56v11.55Zm168.04-21.92h-13.88c-.64,0-1.16-.52-1.16-1.16v-13.87c0-.64,.52-1.16,1.16-1.16h13.88c.64,0,1.16,.52,1.16,1.16v13.87c0,.64-.52,1.16-1.16,1.16Zm-12.72-2.32h11.56v-11.55h-11.56v11.55Zm-142.61,2.32h-13.88c-.64,0-1.16-.52-1.16-1.16v-13.87c0-.64,.52-1.16,1.16-1.16h13.88c.64,0,1.16,.52,1.16,1.16v13.87c0,.64-.52,1.16-1.16,1.16Zm-12.72-2.32h11.56v-11.55h-11.56v11.55Zm168.04-20.64h-13.88c-.64,0-1.16-.52-1.16-1.16v-13.87c0-.64,.52-1.16,1.16-1.16h13.88c.64,0,1.16,.52,1.16,1.16v13.87c0,.64-.52,1.16-1.16,1.16Zm-12.72-2.32h11.56v-11.55h-11.56v11.55Zm-142.61,2.32h-13.88c-.64,0-1.16-.52-1.16-1.16v-13.87c0-.64,.52-1.16,1.16-1.16h13.88c.64,0,1.16,.52,1.16,1.16v13.87c0,.64-.52,1.16-1.16,1.16Zm-12.72-2.32h11.56v-11.55h-11.56v11.55Zm168.04-21.92h-13.88c-.64,0-1.16-.52-1.16-1.16v-13.87c0-.64,.52-1.16,1.16-1.16h13.88c.64,0,1.16,.52,1.16,1.16v13.87c0,.64-.52,1.16-1.16,1.16Zm-12.72-2.32h11.56v-11.55h-11.56v11.55Zm-142.61,2.32h-13.88c-.64,0-1.16-.52-1.16-1.16v-13.87c0-.64,.52-1.16,1.16-1.16h13.88c.64,0,1.16,.52,1.16,1.16v13.87c0,.64-.52,1.16-1.16,1.16Zm-12.72-2.32h11.56v-11.55h-11.56v11.55Z"/>
            <path class="cls-17" d="M640.45,216.03h-127.9c-.64,0-1.16-.52-1.16-1.16V98.13c0-.64,.52-1.16,1.16-1.16h127.9c.64,0,1.16,.52,1.16,1.16v116.74c0,.64-.52,1.16-1.16,1.16Zm-126.74-2.32h125.58V99.29h-125.58v114.42Z"/>
            <path class="cls-17" d="M544.35,208.92c-.21,0-.41-.05-.6-.16-.35-.21-.57-.6-.56-1.01,1.27-102.93,3.07-102.93,4.52-102.93,.31,0,.67,.15,.88,.37l80.22,55.44c.33,.23,.52,.61,.5,1.02-.02,.4-.25,.76-.6,.96l-83.8,46.18c-.18,.1-.37,.15-.56,.15Zm4.02-101.09c-1.28,9.13-2.37,61.57-2.83,97.95l80.4-44.31-77.57-53.64Z"/>
          </g>
          <g>
            <g>
              <rect class="cls-3" x="232.68" y="562.44" width="527.18" height="228.78"/>
              <path class="cls-14" d="M769.81,801.17H222.74v-248.67H769.81v248.67Zm-527.18-19.89h507.29v-208.88H242.63v208.88Z"/>
            </g>
            <g>
              <path class="cls-1" d="M365.79,671.57c0,35.55-21.62,54.42-47.99,54.42s-46.45-21.16-46.45-52.43,20.4-54.26,47.99-54.26,46.45,21.62,46.45,52.28Zm-80.18,1.67c0,22.09,11.95,41.87,32.95,41.87s33.12-19.49,33.12-42.93c0-20.53-10.74-42-32.97-42s-33.1,20.4-33.1,43.07Z"/>
              <path class="cls-1" d="M383.12,724.3v-103.31h14.55l33.12,52.26c7.65,12.12,13.64,23,18.53,33.57l.31-.14c-1.22-13.81-1.53-26.38-1.53-42.47v-43.23h12.57v103.31h-13.48l-32.81-52.43c-7.19-11.48-14.1-23.29-19.31-34.48l-.47,.16c.78,13.04,1.09,25.45,1.09,42.62v44.14h-12.57Z"/>
              <path class="cls-1" d="M533.21,691.8l-10.74,32.5h-13.79l35.11-103.31h16.11l35.26,103.31h-14.26l-11.03-32.5h-36.64Zm33.88-10.41l-10.12-29.74c-2.31-6.74-3.83-12.88-5.36-18.86h-.31c-1.53,6.14-3.22,12.41-5.21,18.71l-10.12,29.9h31.12Z"/>
              <path class="cls-1" d="M623.65,620.99v103.31h-13.33v-103.31h13.33Z"/>
              <path class="cls-1" d="M646.96,622.36c6.74-1.38,16.4-2.16,25.59-2.16,14.26,0,23.47,2.6,29.9,8.43,5.21,4.6,8.12,11.66,8.12,19.62,0,13.66-8.59,22.69-19.47,26.36v.47c7.97,2.76,12.72,10.12,15.17,20.85,3.38,14.42,5.83,24.38,7.98,28.36h-13.79c-1.69-2.91-4-11.81-6.92-24.67-3.05-14.26-8.57-19.62-20.69-20.09h-12.57v44.76h-13.33v-101.94Zm13.33,47.05h13.64c14.26,0,23.31-7.81,23.31-19.62,0-13.33-9.66-19.16-23.76-19.31-6.45,0-11.03,.6-13.19,1.22v37.71Z"/>
            </g>
          </g>
          <g>
            <path class="cls-17" d="M471.47,1082.16c10.63,0,19.25-8.62,19.25-19.25v-91.44h351.32v89.03c0,10.63,8.62,19.25,19.25,19.25s19.25-8.62,19.25-19.25v-108.28c0-10.63-8.62-19.25-19.25-19.25H471.47c-10.63,0-19.25,8.62-19.25,19.25v110.69c0,10.63,8.62,19.25,19.25,19.25Z"/>
            <rect class="cls-10" x="225.22" y="1048.47" width="851.84" height="505.33" rx="39.64" ry="39.64"/>
            <g>
              <path class="cls-1" d="M677.88,1188.87h335.13c11.45,0,20.73-8.99,20.73-20.08s-9.28-20.08-20.73-20.08h-335.13c-11.45,0-20.73,8.99-20.73,20.08s9.28,20.08,20.73,20.08Z"/>
              <path class="cls-17" d="M1013.01,1193.84h-335.12c-14.18,0-25.7-11.23-25.7-25.04s11.52-25.06,25.7-25.06h335.12c14.18,0,25.7,11.25,25.7,25.06s-11.52,25.04-25.7,25.04Zm-335.12-40.16c-8.68,0-15.76,6.78-15.76,15.11s7.07,15.09,15.76,15.09h335.12c8.68,0,15.76-6.78,15.76-15.09s-7.07-15.11-15.76-15.11h-335.12Z"/>
            </g>
            <g>
              <path class="cls-17" d="M1008.33,1181.66c-1.38,0-2.49-1.11-2.49-2.49v-22.71c0-1.38,1.11-2.49,2.49-2.49s2.49,1.11,2.49,2.49v22.71c0,1.38-1.11,2.49-2.49,2.49Z"/>
              <path class="cls-17" d="M994.5,1175.64c-1.38,0-2.49-1.11-2.49-2.49v-11.42c0-1.38,1.11-2.49,2.49-2.49s2.49,1.11,2.49,2.49v11.42c0,1.38-1.11,2.49-2.49,2.49Z"/>
              <path class="cls-17" d="M981.4,1175.64c-1.38,0-2.49-1.11-2.49-2.49v-11.42c0-1.38,1.11-2.49,2.49-2.49s2.49,1.11,2.49,2.49v11.42c0,1.38-1.11,2.49-2.49,2.49Z"/>
              <path class="cls-17" d="M966.68,1175.64c-1.38,0-2.49-1.11-2.49-2.49v-11.42c0-1.38,1.11-2.49,2.49-2.49s2.49,1.11,2.49,2.49v11.42c0,1.38-1.11,2.49-2.49,2.49Z"/>
            </g>
            <g>
              <path class="cls-17" d="M952.09,1181.66c-1.38,0-2.49-1.11-2.49-2.49v-22.71c0-1.38,1.11-2.49,2.49-2.49s2.49,1.11,2.49,2.49v22.71c0,1.38-1.11,2.49-2.49,2.49Z"/>
              <path class="cls-17" d="M938.23,1175.64c-1.38,0-2.49-1.11-2.49-2.49v-11.42c0-1.38,1.11-2.49,2.49-2.49s2.49,1.11,2.49,2.49v11.42c0,1.38-1.11,2.49-2.49,2.49Z"/>
              <path class="cls-17" d="M925.16,1175.64c-1.38,0-2.49-1.11-2.49-2.49v-11.42c0-1.38,1.11-2.49,2.49-2.49s2.49,1.11,2.49,2.49v11.42c0,1.38-1.11,2.49-2.49,2.49Z"/>
              <path class="cls-17" d="M910.41,1175.64c-1.38,0-2.49-1.11-2.49-2.49v-11.42c0-1.38,1.11-2.49,2.49-2.49s2.49,1.11,2.49,2.49v11.42c0,1.38-1.11,2.49-2.49,2.49Z"/>
            </g>
            <g>
              <path class="cls-17" d="M899.15,1181.66c-1.38,0-2.49-1.11-2.49-2.49v-22.71c0-1.38,1.11-2.49,2.49-2.49s2.49,1.11,2.49,2.49v22.71c0,1.38-1.11,2.49-2.49,2.49Z"/>
              <path class="cls-17" d="M885.29,1175.64c-1.38,0-2.49-1.11-2.49-2.49v-11.42c0-1.38,1.11-2.49,2.49-2.49s2.49,1.11,2.49,2.49v11.42c0,1.38-1.11,2.49-2.49,2.49Z"/>
              <path class="cls-17" d="M872.22,1175.64c-1.38,0-2.49-1.11-2.49-2.49v-11.42c0-1.38,1.11-2.49,2.49-2.49s2.49,1.11,2.49,2.49v11.42c0,1.38-1.11,2.49-2.49,2.49Z"/>
              <path class="cls-17" d="M857.47,1175.64c-1.38,0-2.49-1.11-2.49-2.49v-11.42c0-1.38,1.11-2.49,2.49-2.49s2.49,1.11,2.49,2.49v11.42c0,1.38-1.11,2.49-2.49,2.49Z"/>
            </g>
            <g>
              <path class="cls-17" d="M842.89,1181.66c-1.38,0-2.49-1.11-2.49-2.49v-22.71c0-1.38,1.11-2.49,2.49-2.49s2.49,1.11,2.49,2.49v22.71c0,1.38-1.11,2.49-2.49,2.49Z"/>
              <path class="cls-17" d="M829.05,1175.64c-1.38,0-2.49-1.11-2.49-2.49v-11.42c0-1.38,1.11-2.49,2.49-2.49s2.49,1.11,2.49,2.49v11.42c0,1.38-1.11,2.49-2.49,2.49Z"/>
              <path class="cls-17" d="M815.98,1175.64c-1.38,0-2.49-1.11-2.49-2.49v-11.42c0-1.38,1.11-2.49,2.49-2.49s2.49,1.11,2.49,2.49v11.42c0,1.38-1.11,2.49-2.49,2.49Z"/>
              <path class="cls-17" d="M801.23,1175.64c-1.38,0-2.49-1.11-2.49-2.49v-11.42c0-1.38,1.11-2.49,2.49-2.49s2.49,1.11,2.49,2.49v11.42c0,1.38-1.11,2.49-2.49,2.49Z"/>
            </g>
            <g>
              <path class="cls-17" d="M787.85,1181.66c-1.38,0-2.49-1.11-2.49-2.49v-22.71c0-1.38,1.11-2.49,2.49-2.49s2.49,1.11,2.49,2.49v22.71c0,1.38-1.11,2.49-2.49,2.49Z"/>
              <path class="cls-17" d="M774.02,1175.64c-1.38,0-2.49-1.11-2.49-2.49v-11.42c0-1.38,1.11-2.49,2.49-2.49s2.49,1.11,2.49,2.49v11.42c0,1.38-1.11,2.49-2.49,2.49Z"/>
              <path class="cls-17" d="M760.92,1175.64c-1.38,0-2.49-1.11-2.49-2.49v-11.42c0-1.38,1.11-2.49,2.49-2.49s2.49,1.11,2.49,2.49v11.42c0,1.38-1.11,2.49-2.49,2.49Z"/>
              <path class="cls-17" d="M746.2,1175.64c-1.38,0-2.49-1.11-2.49-2.49v-11.42c0-1.38,1.11-2.49,2.49-2.49s2.49,1.11,2.49,2.49v11.42c0,1.38-1.11,2.49-2.49,2.49Z"/>
            </g>
            <g>
              <path class="cls-17" d="M730.69,1181.66c-1.38,0-2.49-1.11-2.49-2.49v-22.71c0-1.38,1.11-2.49,2.49-2.49s2.49,1.11,2.49,2.49v22.71c0,1.38-1.11,2.49-2.49,2.49Z"/>
              <path class="cls-17" d="M716.86,1175.64c-1.38,0-2.49-1.11-2.49-2.49v-11.42c0-1.38,1.11-2.49,2.49-2.49s2.49,1.11,2.49,2.49v11.42c0,1.38-1.11,2.49-2.49,2.49Z"/>
              <path class="cls-17" d="M703.79,1175.64c-1.38,0-2.49-1.11-2.49-2.49v-11.42c0-1.38,1.11-2.49,2.49-2.49s2.49,1.11,2.49,2.49v11.42c0,1.38-1.11,2.49-2.49,2.49Z"/>
              <path class="cls-17" d="M689.04,1175.64c-1.38,0-2.49-1.11-2.49-2.49v-11.42c0-1.38,1.11-2.49,2.49-2.49s2.49,1.11,2.49,2.49v11.42c0,1.38-1.11,2.49-2.49,2.49Z"/>
            </g>
            <polygon class="cls-3" points="946.92 1186.54 919.64 1186.54 931.68 1155.86 946.92 1186.54"/>
            <g>
              <circle class="cls-10" cx="450.04" cy="1314.82" r="179.81"/>
              <g class="cls-19">
                <path class="cls-5" d="M283.96,1376.81c1,2.72,1.88,5.5,3.01,8.16l4.8-3.76,33.29,26.06-17.43,13.64c1.63,2.23,3.23,4.48,4.96,6.63l19.18-15.02,30.94,24.22-22.96,17.98c2.22,1.8,4.56,3.45,6.87,5.14l22.81-17.86,34.08,26.68-16.94,13.26c3.02,1.19,6.06,2.32,9.15,3.35l14.51-11.36,25.31,19.82c5.61,.53,11.28,.86,17.02,.86,2.94,0,5.8-.3,8.7-.44l25.84-20.23,16.78,13.14c3.18-.94,6.26-2.08,9.36-3.19l-19.42-15.2,34.08-26.68,26.61,20.83c2.36-1.63,4.6-3.4,6.87-5.14l-26.77-20.95,30.94-24.22,23.89,18.7c1.79-2.1,3.48-4.29,5.17-6.47l-22.34-17.49,33.29-26.06,10.46,8.19c1.19-2.59,2.34-5.19,3.41-7.85l-7.14-5.59,12.56-9.83c1.29-4.33,2.42-8.71,3.39-13.17l-22.66,17.74-31.73-24.84,35.65-27.9,21.69,16.98c.37-3.29,.49-6.64,.68-9.98l-15.66-12.26,15.45-12.1c-.26-3.26-.63-6.48-1.05-9.69l-21.12,16.53-34.08-26.67,29.37-22.99,23.28,18.22c-.98-4.45-2.08-8.85-3.39-13.17l-13.18-10.31,7.43-5.82c-1.08-2.64-2.32-5.19-3.52-7.76l-10.63,8.32-30.94-24.22,21.68-16.97c-1.68-2.2-3.28-4.44-5.06-6.56l-23.35,18.28-33.29-26.06,26.41-20.67c-2.29-1.72-4.5-3.53-6.87-5.14l-26.25,20.55-35.65-27.9,18.11-14.18c-3.2-1.07-6.46-2-9.74-2.89l-15.09,11.81-22.77-17.82c-3.14-.16-6.24-.48-9.42-.48-5.99,0-11.9,.32-17.74,.9l-22.24,17.41-13.16-10.3c-3.13,.97-6.13,2.2-9.19,3.33l15.63,12.24-35.64,27.9-22.45-17.57c-2.32,1.67-4.63,3.36-6.87,5.14l22.6,17.69-33.29,26.06-18.53-14.5c-1.71,2.16-3.35,4.39-4.96,6.63l16.77,13.13-30.94,24.22-4.97-3.89c-1.15,2.64-2.1,5.37-3.12,8.07l1.38,1.08-2.48,1.94c-1.63,4.56-3.06,9.18-4.32,13.9l13.52-10.59,29.36,22.98-34.07,26.67-14.15-11.07c-.34,3.33-.36,6.74-.52,10.11l7.95,6.22-8.15,6.38c.08,3.4,.24,6.77,.51,10.12l14.36-11.24,35.64,27.9-31.72,24.83-12.9-10.1c1.23,4.69,2.63,9.29,4.22,13.82l1.96,1.54-1.09,.85Zm44.67-90.78l35.65,27.9-34.08,26.67-35.64-27.9,34.07-26.67Zm160.04,3.68l30.94,24.22-33.29,26.06-30.94-24.22,33.29-26.06Zm-40.01,20.8l-33.29-26.06,33.29-26.06,33.29,26.06-33.29,26.06Zm30.94,34.74l-30.94,24.22-30.94-24.22,30.94-24.22,30.94,24.22Zm-68.6-5.26l-33.29-26.06,30.94-24.22,33.29,26.06-30.94,24.22Zm-40.01-31.32l-35.65-27.9,30.94-24.22,35.64,27.9-30.94,24.22Zm2.01-57.38l33.29-26.06,35.65,27.9-33.29,26.06-35.65-27.9Zm40.01-31.32l35.65-27.9,35.64,27.9-35.64,27.9-35.65-27.9Zm78.01,5.26l33.29,26.06-35.65,27.9-33.29-26.06,35.64-27.9Zm40.01,31.32l30.94,24.22-35.65,27.9-30.94-24.22,35.65-27.9Zm-4.71,62.64l34.08,26.68-33.29,26.06-34.08-26.68,33.29-26.06Zm-5.93,58l-30.94,24.22-34.08-26.68,30.94-24.22,34.08,26.68Zm-37.66,29.48l-34.08,26.68-34.08-26.68,34.08-26.68,34.08,26.68Zm-74.87-5.26l-30.94-24.22,34.08-26.68,30.94,24.22-34.08,26.68Zm-37.66-29.48l-33.29-26.06,34.08-26.67,33.29,26.06-34.08,26.68Zm-40-143.62l29.36,22.98-30.94,24.22-29.36-22.98,30.94-24.22Zm40.01-31.32l29.36,22.98-33.29,26.06-29.36-22.98,33.29-26.06Zm42.36-33.16l29.36,22.99-35.65,27.9-29.36-22.98,35.64-27.9Zm65.45-5.27l-29.37,22.99-29.36-22.99,29.37-22.99,29.36,22.99Zm42.36,33.16l-29.37,22.99-35.64-27.9,29.37-22.99,35.65,27.9Zm40.01,31.32l-29.37,22.99-33.29-26.06,29.37-22.99,33.29,26.06Zm8.29,52.47l-30.94-24.22,29.37-22.99,30.94,24.22-29.37,22.99Zm-1.57,65.1l-34.08-26.68,35.65-27.9,34.08,26.67-35.65,27.9Zm-1.56,61.42l-31.73-24.84,33.29-26.06,31.73,24.84-33.29,26.06Zm-37.66,29.48l-31.73-24.84,30.94-24.22,31.73,24.84-30.94,24.22Zm-40.8,31.94l-31.73-24.84,34.08-26.68,31.73,24.84-34.08,26.68Zm-70.17,5.25l31.72-24.83,31.73,24.84-31.72,24.83-31.73-24.84Zm-40.8-31.94l31.72-24.83,34.08,26.68-31.72,24.83-34.08-26.68Zm-37.66-29.48l31.72-24.83,30.94,24.22-31.72,24.83-30.94-24.22Zm-40.01-31.32l31.72-24.83,33.29,26.06-31.72,24.83-33.29-26.06Z"/>
              </g>
              <path class="cls-9" d="M261.96,1314.82c0-103.71,84.37-188.08,188.08-188.08s188.08,84.37,188.08,188.08-84.37,188.08-188.08,188.08-188.08-84.37-188.08-188.08Zm16.53,0c0,94.59,76.96,171.54,171.54,171.54s171.54-76.96,171.54-171.54-76.96-171.54-171.54-171.54-171.54,76.96-171.54,171.54Z"/>
            </g>
            <circle class="cls-17" cx="995.84" cy="1111.64" r="15.04" transform="translate(-314.86 1825.44) rotate(-76.72)"/>
            <circle class="cls-17" cx="935.69" cy="1111.64" r="15.04" transform="translate(-361.19 1766.89) rotate(-76.72)"/>
            <circle class="cls-17" cx="864.7" cy="1111.64" r="15.04" transform="translate(-415.87 1697.8) rotate(-76.72)"/>
            <path class="cls-12" d="M699.26,1356.48h298.38c5.32,0,9.63-4.31,9.63-9.63s-4.31-9.63-9.63-9.63h-298.38c-5.32,0-9.63,4.31-9.63,9.63s4.31,9.63,9.63,9.63Z"/>
            <path class="cls-12" d="M699.26,1397.39h298.38c5.32,0,9.63-4.31,9.63-9.63s-4.31-9.63-9.63-9.63h-298.38c-5.32,0-9.63,4.31-9.63,9.63s4.31,9.63,9.63,9.63Z"/>
            <path class="cls-12" d="M699.26,1439.5h298.38c5.32,0,9.63-4.31,9.63-9.63s-4.31-9.63-9.63-9.63h-298.38c-5.32,0-9.63,4.31-9.63,9.63s4.31,9.63,9.63,9.63Z"/>
            <path class="cls-12" d="M699.26,1480.41h298.38c5.32,0,9.63-4.31,9.63-9.63s-4.31-9.63-9.63-9.63h-298.38c-5.32,0-9.63,4.31-9.63,9.63s4.31,9.63,9.63,9.63Z"/>
            <g class="cls-15">
              <circle class="cls-6" cx="968.77" cy="1256.22" r="29.68" transform="translate(-604.53 1052.96) rotate(-45)"/>
            </g>
            <rect class="cls-10" x="969.38" y="1229.83" width="28.45" height="19.9" transform="translate(-569.01 933.33) rotate(-40.41)"/>
            <g class="cls-15">
              <circle class="cls-6" cx="734.56" cy="1256.22" r="29.68" transform="translate(-656.82 1682.51) rotate(-76.72)"/>
            </g>
            <rect class="cls-10" x="735.17" y="1229.83" width="28.45" height="19.9" transform="translate(-624.88 781.51) rotate(-40.41)"/>
            <circle class="cls-9" cx="854.87" cy="1257.82" r="41.71" transform="translate(-404.1 2111) rotate(-89.92)"/>
            <rect class="cls-10" x="833.23" y="1216.8" width="39.97" height="19.88" transform="translate(-436.48 1981.42) rotate(-85.52)"/>
          </g>
        </g>
      </g>
    </g>
  </g>
</svg>